<svg xmlns="http://www.w3.org/2000/svg" xmlns:xlink="http://www.w3.org/1999/xlink"><symbol viewBox="0 0 24 25" fill="none" id="icon-basket" xmlns="http://www.w3.org/2000/svg"><path d="M7.27 15.914h13.044A2.691 2.691 0 0 0 23 13.228V7.74v-.02-.039c0-.01 0-.02-.005-.029 0-.01-.005-.024-.005-.034 0-.01-.005-.02-.005-.03-.005-.009-.005-.019-.01-.033-.004-.01-.004-.02-.01-.03-.004-.01-.004-.019-.009-.029a.237.237 0 0 1-.014-.034 3.972 3.972 0 0 0-.03-.054c-.004-.009-.01-.014-.014-.024-.005-.01-.015-.02-.02-.029-.005-.01-.01-.014-.02-.024-.004-.01-.014-.015-.019-.024-.004-.01-.014-.015-.019-.025-.005-.01-.015-.014-.02-.02l-.024-.024c-.01-.004-.014-.014-.024-.019-.01-.005-.02-.015-.03-.02-.01-.004-.014-.01-.024-.014a.101.101 0 0 1-.029-.02l-.029-.014-.03-.015-.028-.014c-.01-.005-.02-.005-.03-.01a.09.09 0 0 0-.034-.01c-.01 0-.02-.005-.024-.005-.015-.005-.024-.005-.039-.005-.005 0-.01-.004-.02-.004L5.904 4.806V2.499c0-.024 0-.048-.005-.068 0-.004 0-.01-.005-.02 0-.014-.005-.028-.005-.043-.005-.014-.005-.024-.01-.039 0-.01-.004-.014-.004-.024l-.015-.044c0-.005-.005-.014-.005-.02a.146.146 0 0 0-.02-.038c-.004-.005-.004-.015-.009-.02-.005-.01-.01-.02-.02-.029-.004-.01-.01-.015-.014-.024l-.015-.025c-.005-.01-.014-.02-.02-.029l-.014-.014-.029-.03-.015-.014a.212.212 0 0 0-.034-.03l-.019-.014c-.01-.01-.02-.015-.03-.024a.45.45 0 0 0-.038-.025c-.005-.004-.01-.004-.015-.01-.02-.01-.044-.019-.063-.029L1.913.378a.656.656 0 0 0-.861.35.656.656 0 0 0 .35.862l3.182 1.343v14.392a2.689 2.689 0 0 0 2.34 2.66c-.238.4-.379.867-.379 1.363A2.655 2.655 0 0 0 9.197 24a2.658 2.658 0 0 0 2.651-2.652c0-.486-.131-.948-.365-1.338h5.907a2.615 2.615 0 0 0-.365 1.338A2.655 2.655 0 0 0 19.677 24a2.658 2.658 0 0 0 2.652-2.652 2.658 2.658 0 0 0-2.652-2.651H7.27a1.374 1.374 0 0 1-1.372-1.372v-1.781c.399.233.87.37 1.372.37zm3.27 5.43a1.34 1.34 0 0 1-1.338 1.337 1.344 1.344 0 0 1-1.338-1.338c0-.734.603-1.338 1.338-1.338a1.34 1.34 0 0 1 1.338 1.338zm10.48 0a1.34 1.34 0 0 1-1.338 1.337 1.344 1.344 0 0 1-1.338-1.338c0-.734.603-1.338 1.338-1.338a1.34 1.34 0 0 1 1.338 1.338zm-.706-6.744H7.27a1.374 1.374 0 0 1-1.372-1.372V6.129l15.788 2.175v4.919c0 .764-.618 1.377-1.372 1.377z" fill="#C6A464" stroke="#C6A464" stroke-width=".5"/></symbol><symbol viewBox="0 0 31 31" fill="none" id="icon-brands" xmlns="http://www.w3.org/2000/svg"><circle cx="15.5" cy="15.5" r="14.8" stroke="#000" stroke-width="1.4"/><path d="M10.535 11.745v7.943c0 .095.03.173.091.234a.38.38 0 0 0 .234.078c.087 0 .16-.026.221-.078.06-.052.091-.13.091-.234v-7.943h1.599c.095 0 .169-.03.221-.091a.3.3 0 0 0 .091-.221c0-.217-.104-.325-.312-.325H8.949a.297.297 0 0 0-.234.104.328.328 0 0 0-.078.221c0 .087.026.16.078.221.06.06.139.091.234.091h1.586zm10.432 7.93v-8.242a.38.38 0 0 0-.091-.26.235.235 0 0 0-.195-.104c-.121 0-.225.07-.312.208l-2.262 3.679-2.262-3.679c-.078-.139-.178-.208-.3-.208-.19 0-.285.121-.285.364v8.242c0 .104.03.186.09.247.062.052.135.078.222.078.217 0 .325-.108.325-.325v-7.111l1.937 3.159c.078.13.169.195.273.195.104 0 .195-.065.273-.195l1.95-3.159v7.111c0 .104.03.186.09.247.07.052.144.078.222.078.217 0 .325-.108.325-.325z" fill="#000"/><path d="M10.535 11.745h.5v-.5h-.5v.5zm.091 8.177l-.354.354.026.025.028.021.3-.4zm.455 0l.325.38-.325-.38zm.091-8.177v-.5h-.5v.5h.5zm1.82-.091l-.354-.354-.013.014-.013.015.38.325zm-4.277-.442l-.376-.33-.004.005.38.325zm0 .442l-.38.325.013.015.013.014.354-.354zm1.32.091v7.943h1v-7.943h-1zm0 7.943c0 .212.072.422.237.588l.708-.708a.204.204 0 0 1 .044.069c.01.026.011.045.011.051h-1zm.291.634a.88.88 0 0 0 .534.178v-1c.008 0 .02.001.035.006a.113.113 0 0 1 .031.016l-.6.8zm.534.178a.828.828 0 0 0 .546-.198l-.65-.76a.185.185 0 0 1 .104-.042v1zm.546-.198a.788.788 0 0 0 .266-.614h-1c0 .005 0-.014.011-.045a.26.26 0 0 1 .073-.1l.65.759zm.266-.614v-7.943h-1v7.943h1zm-.5-7.443h1.599v-1h-1.599v1zm1.599 0c.21 0 .435-.073.6-.266l-.759-.65a.255.255 0 0 1 .095-.07.176.176 0 0 1 .064-.014v1zm.575-.237a.8.8 0 0 0 .237-.575h-1a.196.196 0 0 1 .055-.133l.708.708zm.237-.575a.834.834 0 0 0-.217-.59.806.806 0 0 0-.595-.235v1c.022 0-.053.005-.127-.072-.07-.074-.061-.14-.061-.103h1zm-.812-.825H8.949v1h3.822v-1zm-3.822 0a.797.797 0 0 0-.61.275l.752.658a.202.202 0 0 1-.142.067v-1zm-.614.279a.828.828 0 0 0-.198.546h1a.145.145 0 0 1-.009.046.186.186 0 0 1-.033.058l-.76-.65zm-.198.546c0 .195.062.387.198.546l.76-.65a.185.185 0 0 1 .042.104h-1zm.224.575a.816.816 0 0 0 .588.237v-1c.006 0 .025.001.051.011.027.01.051.027.069.044l-.708.708zm.588.237h1.586v-1H8.949v1zm11.927-1.072l-.4.3.011.015.013.014.376-.329zm-.507.104l-.424-.265-.002.003.426.262zm-2.262 3.679l-.426.262.426.693.426-.693-.426-.262zm-2.262-3.679l-.436.245.005.009.005.008.426-.262zm-.494 8.645l-.354.354.014.013.014.013.326-.38zm.546-7.358l.426-.261-.926-1.511v1.772h.5zm1.937 3.159l.429-.257-.003-.004-.426.261zm.546 0l-.426-.263-.003.006.429.257zm1.95-3.159h.5v-1.762l-.926 1.5.426.262zm.09 7.358l-.353.354.026.025.028.021.3-.4zm1.047-.247v-8.242h-1v8.242h1zm0-8.242a.88.88 0 0 0-.215-.59l-.752.66a.148.148 0 0 1-.028-.048c-.006-.016-.005-.025-.005-.022h1zm-.191-.56a.735.735 0 0 0-.595-.304v1a.277.277 0 0 1-.128-.033.236.236 0 0 1-.077-.063l.8-.6zm-.595-.304c-.352 0-.594.215-.736.443l.848.53c.017-.027.018-.02-.004-.005a.204.204 0 0 1-.108.032v-1zm-.738.446l-2.262 3.68.852.523 2.262-3.68-.852-.523zm-1.41 3.68l-2.262-3.68-.852.524 2.262 3.679.852-.524zm-2.252-3.663c-.135-.24-.377-.463-.735-.463v1a.212.212 0 0 1-.12-.038c-.028-.02-.03-.032-.017-.009l.872-.49zm-.735-.463a.754.754 0 0 0-.608.282.928.928 0 0 0-.178.582h1c0-.07.016-.03-.035.036a.277.277 0 0 1-.109.083.19.19 0 0 1-.07.017v-1zm-.786.864v8.242h1v-8.242h-1zm0 8.242c0 .207.064.427.237.6l.707-.707a.207.207 0 0 1 .048.074c.008.023.008.037.008.033h-1zm.265.627c.16.136.352.198.547.198v-1a.185.185 0 0 1 .104.042l-.65.76zm.547.198a.826.826 0 0 0 .597-.228.826.826 0 0 0 .228-.597h-1c0 .031-.008-.037.065-.11.073-.073.141-.065.11-.065v1zm.825-.825v-7.111h-1v7.111h1zm-.926-6.85l1.937 3.16.852-.523-1.937-3.16-.852.523zm1.934 3.155c.123.206.35.438.702.438v-1a.261.261 0 0 1 .144.044c.027.02.027.03.012.004l-.858.514zm.702.438c.352 0 .578-.232.702-.438l-.858-.514c-.015.026-.015.015.011-.004a.263.263 0 0 1 .144-.044v1zm.698-.432l1.95-3.16-.85-.525-1.95 3.16.85.525zm1.025-3.422v7.111h1v-7.111h-1zm0 7.111c0 .207.064.427.237.6l.707-.707a.207.207 0 0 1 .048.074c.008.023.008.037.008.033h-1zm.29.647c.147.11.324.178.522.178v-1c.018 0 .036.003.053.009a.107.107 0 0 1 .026.013l-.6.8zm.522.178a.826.826 0 0 0 .597-.228.826.826 0 0 0 .228-.597h-1c0 .031-.008-.037.065-.11.073-.073.141-.065.11-.065v1z" fill="#000"/></symbol><symbol viewBox="0 0 20 17" fill="none" id="icon-burger" xmlns="http://www.w3.org/2000/svg"><path d="M0 .25h20V4H0V.25zM0 6.5h20v3.75H0V6.5zM0 12.75h20v3.75H0v-3.75z" fill="#000"/></symbol><symbol viewBox="0 0 32 32" fill="none" id="icon-chandeliers" xmlns="http://www.w3.org/2000/svg"><path d="M1.262 15.877l-1.25 6.25a.625.625 0 0 0 .613.748H2.5v1.25a3.75 3.75 0 1 0 7.5 0V23.5c0-1.034.841-1.875 1.875-1.875h1.123a3.623 3.623 0 0 1 1.647.4 2.5 2.5 0 0 0 .73 4.52v4.83a.625.625 0 1 0 1.25 0v-4.83a2.5 2.5 0 1 0 .732-4.52c.52-.264 1.077-.397 1.646-.4h1.122c1.034 0 1.875.841 1.875 1.875v.625a3.754 3.754 0 0 0 3.75 3.75c1.001 0 1.943-.39 2.651-1.099a3.725 3.725 0 0 0 1.099-2.651v-1.25h1.875a.624.624 0 0 0 .613-.748l-1.25-6.25a.625.625 0 0 0-.613-.502h-2.5a.625.625 0 0 0-.613.502l-1.25 6.25a.625.625 0 0 0 .613.748h1.875v1.25c0 .667-.26 1.295-.733 1.767-.472.473-1.1.733-1.767.733a2.503 2.503 0 0 1-2.5-2.5V23.5a3.126 3.126 0 0 0-1.567-2.707c.2-.299.317-.657.317-1.043v-.625h1.875a.624.624 0 0 0 .613-.748l-1.25-6.25a.625.625 0 0 0-.613-.502h-2.5a.625.625 0 0 0-.613.502l-1.25 6.25a.625.625 0 0 0 .613.748h1.875v.625c0 .345-.28.625-.625.625h-1.128a4.881 4.881 0 0 0-2.372.626v-6.984a1.878 1.878 0 0 0 1.25-1.767c0-.815-.523-1.51-1.25-1.768V7.421A2.504 2.504 0 0 0 18.5 5a3.129 3.129 0 0 0 3.125-3.125V.625A.625.625 0 0 0 21 0H11a.625.625 0 0 0-.625.625v1.25A3.129 3.129 0 0 0 13.5 5c0 1.163.798 2.143 1.875 2.42v3.063a1.878 1.878 0 0 0-1.25 1.767c0 .815.523 1.51 1.25 1.768v6.98a4.863 4.863 0 0 0-2.373-.623h-1.127a.626.626 0 0 1-.625-.625v-.625h1.875a.624.624 0 0 0 .613-.748l-1.25-6.25a.625.625 0 0 0-.613-.502h-2.5a.625.625 0 0 0-.613.502l-1.25 6.25a.625.625 0 0 0 .613.748H10v.625c0 .386.117.744.318 1.043A3.126 3.126 0 0 0 8.75 23.5v.625a2.5 2.5 0 1 1-5 0v-1.25h1.875a.625.625 0 0 0 .613-.748l-1.25-6.25a.625.625 0 0 0-.613-.502h-2.5a.625.625 0 0 0-.613.502zm26.875.748h1.476l1 5h-3.476l1-5zm-7.5-3.75h1.476l1 5h-3.476l1-5zm-10.75 0h1.476l1 5H8.887l1-5zM16 25.375c-.69 0-1.25-.56-1.25-1.25s.56-1.25 1.25-1.25 1.25.56 1.25 1.25-.56 1.25-1.25 1.25zm-4.375-23.5V1.25h8.75v.625A1.877 1.877 0 0 1 18.5 3.75h-5a1.877 1.877 0 0 1-1.875-1.875zm3.125 3.124h2.5c0 .69-.56 1.251-1.25 1.251S14.75 5.689 14.75 5zM16 11.625a.626.626 0 1 1-.001 1.251.626.626 0 0 1 .001-1.251zm-12.137 5l1 5H1.387l1-5h1.476z" fill="#000"/></symbol><symbol viewBox="0 0 31 33" fill="none" id="icon-clock" xmlns="http://www.w3.org/2000/svg"><path d="M22.162 20.793a9.215 9.215 0 0 0 2.76-6.594c0-2.49-.98-4.832-2.76-6.593A9.41 9.41 0 0 0 15.5 4.875a9.41 9.41 0 0 0-6.662 2.731 9.215 9.215 0 0 0-2.76 6.593c0 2.49.98 4.832 2.76 6.594a9.41 9.41 0 0 0 6.662 2.73 9.41 9.41 0 0 0 6.662-2.73zm-14.86-6.594c0-2.167.852-4.204 2.4-5.737A8.188 8.188 0 0 1 15.5 6.086c2.19 0 4.249.844 5.797 2.376a8.018 8.018 0 0 1 2.401 5.737 8.018 8.018 0 0 1-2.4 5.737 8.188 8.188 0 0 1-5.798 2.377 8.188 8.188 0 0 1-5.797-2.377A8.018 8.018 0 0 1 7.302 14.2z" fill="#000"/><path d="M15.508 8.892a.609.609 0 0 0 .611-.606v-.56a.609.609 0 0 0-.611-.606.609.609 0 0 0-.612.605v.561c0 .335.274.606.611.606zM21.475 14.812h.567a.609.609 0 0 0 .612-.605.609.609 0 0 0-.612-.606h-.567a.609.609 0 0 0-.612.606c0 .334.274.605.612.605zM9.525 13.586h-.567a.609.609 0 0 0-.612.606c0 .334.274.605.612.605h.567a.609.609 0 0 0 .612-.605.609.609 0 0 0-.612-.606zM16.112 20.657v-4.738a1.835 1.835 0 0 0 1.126-1.114h1.872a.609.609 0 0 0 .611-.606.609.609 0 0 0-.611-.605h-1.873a1.81 1.81 0 0 0-.434-.684 1.858 1.858 0 0 0-2.606 0 1.812 1.812 0 0 0 0 2.578c.202.2.439.343.691.43v4.739c0 .334.274.605.612.605a.609.609 0 0 0 .612-.605zm-1.05-6.89a.618.618 0 0 1 .438-.18.618.618 0 0 1 .619.612.617.617 0 0 1-.619.612.618.618 0 0 1-.618-.612c0-.163.064-.317.18-.433z" fill="#000"/><path d="M29.388 27.398H3.386V25.836v-.243-11.394C3.386 7.59 8.82 2.211 15.5 2.211c6.68 0 12.114 5.378 12.114 11.988v11.169c0 .334.274.605.612.605a.609.609 0 0 0 .612-.605V14.199c0-3.525-1.388-6.84-3.907-9.333A13.321 13.321 0 0 0 15.5 1a13.32 13.32 0 0 0-9.431 3.866c-2.52 2.493-3.907 5.808-3.907 9.333v13.2h-.55a.609.609 0 0 0-.612.605v3.39c0 .335.274.606.612.606h27.776a.609.609 0 0 0 .612-.605v-3.391a.609.609 0 0 0-.612-.606zm-.612 3.391H2.224v-2.18h26.552v2.18z" fill="#000"/><path d="M22.162 20.793a9.215 9.215 0 0 0 2.76-6.594c0-2.49-.98-4.832-2.76-6.593A9.41 9.41 0 0 0 15.5 4.875a9.41 9.41 0 0 0-6.662 2.731 9.215 9.215 0 0 0-2.76 6.593c0 2.49.98 4.832 2.76 6.594a9.41 9.41 0 0 0 6.662 2.73 9.41 9.41 0 0 0 6.662-2.73zm-14.86-6.594c0-2.167.852-4.204 2.4-5.737A8.188 8.188 0 0 1 15.5 6.086c2.19 0 4.249.844 5.797 2.376a8.018 8.018 0 0 1 2.401 5.737 8.018 8.018 0 0 1-2.4 5.737 8.188 8.188 0 0 1-5.798 2.377 8.188 8.188 0 0 1-5.797-2.377A8.018 8.018 0 0 1 7.302 14.2z" stroke="#000" stroke-width=".25"/><path d="M15.508 8.892a.609.609 0 0 0 .611-.606v-.56a.609.609 0 0 0-.611-.606.609.609 0 0 0-.612.605v.561c0 .335.274.606.611.606zM21.475 14.812h.567a.609.609 0 0 0 .612-.605.609.609 0 0 0-.612-.606h-.567a.609.609 0 0 0-.612.606c0 .334.274.605.612.605zM9.525 13.586h-.567a.609.609 0 0 0-.612.606c0 .334.274.605.612.605h.567a.609.609 0 0 0 .612-.605.609.609 0 0 0-.612-.606zM16.112 20.657v-4.738a1.835 1.835 0 0 0 1.126-1.114h1.872a.609.609 0 0 0 .611-.606.609.609 0 0 0-.611-.605h-1.873a1.81 1.81 0 0 0-.434-.684 1.858 1.858 0 0 0-2.606 0 1.812 1.812 0 0 0 0 2.578c.202.2.439.343.691.43v4.739c0 .334.274.605.612.605a.609.609 0 0 0 .612-.605zm-1.05-6.89a.618.618 0 0 1 .438-.18.618.618 0 0 1 .619.612.617.617 0 0 1-.619.612.618.618 0 0 1-.618-.612c0-.163.064-.317.18-.433z" stroke="#000" stroke-width=".25"/><path d="M29.388 27.398H3.386V25.836v-.243-11.394C3.386 7.59 8.82 2.211 15.5 2.211c6.68 0 12.114 5.378 12.114 11.988v11.169c0 .334.274.605.612.605a.609.609 0 0 0 .612-.605V14.199c0-3.525-1.388-6.84-3.907-9.333A13.321 13.321 0 0 0 15.5 1a13.32 13.32 0 0 0-9.431 3.866c-2.52 2.493-3.907 5.808-3.907 9.333v13.2h-.55a.609.609 0 0 0-.612.605v3.39c0 .335.274.606.612.606h27.776a.609.609 0 0 0 .612-.605v-3.391a.609.609 0 0 0-.612-.606zm-.612 3.391H2.224v-2.18h26.552v2.18z" stroke="#000" stroke-width=".25"/></symbol><symbol viewBox="0 0 18 29" fill="none" id="icon-desk" xmlns="http://www.w3.org/2000/svg"><path d="M17.902 11.62c-.605-1.157-2.611-5.294-2.98-9.986C14.848.718 14.03 0 13.057 0H4.942c-.973 0-1.79.718-1.863 1.634-.37 4.692-2.375 8.829-2.981 9.985a.833.833 0 0 0 .043.855c.172.261.468.416.793.416h7.389v4.203c0 1.125-.008 1.6-.008 2.612s0 1.116.008 1.675v3.65H5.86c-1.583 0-2.873 1.204-2.896 2.692H1.483c-.374 0-.677.286-.677.639 0 .353.303.639.677.639h15.034c.374 0 .678-.286.678-.639 0-.353-.304-.639-.678-.639h-1.482c-.023-1.488-1.313-2.692-2.896-2.692H9.677v-3.65-2.18V12.89h7.389a.942.942 0 0 0 .793-.416.833.833 0 0 0 .043-.855zM13.68 27.721H4.32c.023-.783.705-1.414 1.541-1.414h6.278c.836 0 1.518.63 1.541 1.414zM4.43 1.729a.505.505 0 0 1 .512-.451H6.63c-.178 3.561-1.722 8.782-2.203 10.335H1.602c.827-1.695 2.487-5.559 2.828-9.884zm9.143 9.884c-.22-.71-.662-2.181-1.091-3.901-.086-.344-.45-.556-.814-.476-.365.081-.59.425-.505.769.373 1.494.755 2.805.999 3.607H5.839c.59-1.936 1.985-6.827 2.147-10.334h2.028c.022.469.067.979.133 1.525.043.35.38.602.75.562.373-.04.64-.358.596-.709-.06-.494-.102-.956-.123-1.378h1.688c.267 0 .492.198.512.45.34 4.326 2 8.19 2.828 9.885h-2.825z" fill="#000"/></symbol><symbol viewBox="0 0 32 31" fill="none" id="icon-fixtures" xmlns="http://www.w3.org/2000/svg"><path d="M14.984 28.416c0 .285.232.516.517.516a2.586 2.586 0 0 0 2.583-2.583.517.517 0 0 0-1.033 0 1.55 1.55 0 0 1-1.55 1.55.516.516 0 0 0-.517.517zM28.417 16.016a.517.517 0 0 0-.517.517 1.55 1.55 0 0 1-1.55 1.55.517.517 0 1 0 0 1.033 2.586 2.586 0 0 0 2.584-2.583.517.517 0 0 0-.517-.517zM4.135 21.699c0 .285.231.517.516.517a2.586 2.586 0 0 0 2.583-2.584.517.517 0 0 0-1.033 0 1.55 1.55 0 0 1-1.55 1.55.517.517 0 0 0-.516.517z" fill="#000"/><path d="M30.734 14.98a4.65 4.65 0 0 0-2.834-2.833V10.85a.517.517 0 0 0-.516-.517h-.517v-7.75h3.616A.517.517 0 0 0 31 2.067V.517A.517.517 0 0 0 30.483 0H.518A.517.517 0 0 0 0 .517v1.55c0 .285.232.516.517.516h3.616v10.85h-.516a.517.517 0 0 0-.517.517v1.297a4.65 4.65 0 1 0 3.1 0V13.95a.517.517 0 0 0-.517-.517h-.516V2.583h9.816V20.15h-.517a.517.517 0 0 0-.516.517v1.297a4.65 4.65 0 1 0 3.1 0v-1.297a.517.517 0 0 0-.517-.517h-.517V2.583h9.817v7.75h-.517a.517.517 0 0 0-.517.517v1.297a4.65 4.65 0 1 0 5.934 2.834zm-26.6-.514h1.034v.546a4.625 4.625 0 0 0-1.034 0v-.546zm1.228 1.627c.065.012.13.02.193.036a3.617 3.617 0 1 1-1.812 0 3.7 3.7 0 0 1 1.62-.036zm9.622 5.09h1.033v.545a4.625 4.625 0 0 0-1.033 0v-.546zm1.228 1.626c.064.013.13.02.193.037a3.617 3.617 0 1 1-1.812 0 3.7 3.7 0 0 1 1.62-.037zM1.035 1.55v-.516h28.932v.517H1.035zm24.799 9.817h1.033v.546a4.637 4.637 0 0 0-1.033 0v-.546zm.514 8.781a3.617 3.617 0 0 1-.905-7.117 3.7 3.7 0 0 1 1.619-.037c.064.013.129.02.192.036a3.617 3.617 0 0 1-.906 7.118z" fill="#000"/></symbol><symbol viewBox="0 0 21 31" fill="none" id="icon-interior" xmlns="http://www.w3.org/2000/svg"><path d="M.234 15.678a.203.203 0 0 0-.003.01v.005a7.494 7.494 0 0 0 .752 5.55l3.341 6.167a1.82 1.82 0 0 0-1.428 1.774c0 1.001.815 1.816 1.816 1.816h10.899a1.818 1.818 0 0 0 1.816-1.816A1.82 1.82 0 0 0 16 27.41l3.341-6.166c.267-.468.484-.966.645-1.483 0-.002 0-.004.002-.005v-.004a7.47 7.47 0 0 0 .112-4.035 7.464 7.464 0 0 0-6.003-5.561l1.399-6.523h.116a1.816 1.816 0 1 0 0-3.633H4.712a1.816 1.816 0 1 0 0 3.633h.117l1.399 6.523a7.472 7.472 0 0 0-5.994 5.522zm18.85 1.28c.004.043.01.087.012.13a6.263 6.263 0 0 1-.222 2.154l-.008.007c-.869.793-1.948.793-2.817 0-1.33-1.213-3.118-1.213-4.449 0-.868.793-1.948.793-2.816 0-1.33-1.213-3.119-1.213-4.45 0-.902.824-2.03.784-2.907-.087a6.245 6.245 0 0 1-.2-2.073c.004-.056.01-.111.016-.166 1.247.78 2.75.644 3.908-.412.868-.792 1.948-.792 2.817 0 .665.607 1.444.91 2.224.91.78 0 1.559-.303 2.224-.91.869-.792 1.948-.792 2.817 0 1.14 1.04 2.615 1.188 3.851.446zm-2.868 12.226a.606.606 0 0 1-.605.605H4.712a.606.606 0 0 1 0-1.21H7.74a.605.605 0 1 0 0-1.212H5.678l-3.468-6.4c.237.058.477.088.718.088.776 0 1.554-.302 2.223-.911.868-.792 1.948-.792 2.817 0 1.33 1.213 3.118 1.213 4.448 0 .869-.792 1.948-.792 2.817 0 .665.607 1.444.91 2.224.91.217 0 .433-.025.648-.071l-3.46 6.384h-2.061a.605.605 0 1 0 0 1.211h3.027c.334 0 .605.272.605.606zM4.107 1.816c0-.334.271-.605.605-.605h10.899a.606.606 0 0 1 0 1.21H4.712a.606.606 0 0 1-.605-.605zm1.96 1.817h8.19l-1.484 6.916a.606.606 0 0 0 .546.73 6.255 6.255 0 0 1 5.504 4.375c-.86.754-1.92.742-2.774-.038-1.33-1.213-3.118-1.213-4.449 0-.868.792-1.948.792-2.816 0-1.331-1.213-3.119-1.213-4.45 0-.868.793-1.948.792-2.817 0l-.004-.004a6.262 6.262 0 0 1 5.491-4.332.606.606 0 0 0 .547-.73L6.067 3.632z" fill="#000"/></symbol><symbol viewBox="0 0 20 32" fill="none" id="icon-lamp" xmlns="http://www.w3.org/2000/svg"><path d="M14.1 9.5a.733.733 0 0 0-.726.738.623.623 0 0 1-.619.627.623.623 0 0 1-.618-.627.733.733 0 0 0-.727-.738.733.733 0 0 0-.728.738.623.623 0 0 1-.618.627.623.623 0 0 1-.618-.627.733.733 0 0 0-.727-.738.733.733 0 0 0-.728.738.623.623 0 0 1-.618.627.623.623 0 0 1-.618-.627.733.733 0 0 0-.728-.738.733.733 0 0 0-.727.738c0 1.159.93 2.102 2.073 2.102.513 0 .983-.19 1.346-.504a2.047 2.047 0 0 0 2.69 0c.363.314.833.504 1.346.504 1.143 0 2.073-.943 2.073-2.102a.733.733 0 0 0-.727-.738z" fill="#000"/><path d="M20 10.142c0-2.754-1.07-5.332-3.014-7.256A9.848 9.848 0 0 0 9.758.003C4.288.134-.09 4.759 0 10.31a10.21 10.21 0 0 0 2.542 6.586 11.786 11.786 0 0 1 2.39 4.204.738.738 0 0 0-.453.683c0 .407.326.738.728.738h.08c.116.648.176 1.305.176 1.962v1.698c0 2.285 1.652 4.186 3.81 4.54v.54c0 .408.325.738.727.738.401 0 .727-.33.727-.738v-.54c2.157-.354 3.809-2.255 3.809-4.54v-1.7c0-.656.058-1.313.172-1.96h.043c.402 0 .728-.33.728-.738 0-.3-.176-.556-.429-.672a11.276 11.276 0 0 1 2.356-4.159A10.192 10.192 0 0 0 20 10.143zm-6.918 16.04c0 1.723-1.382 3.125-3.081 3.125-1.7 0-3.083-1.402-3.083-3.125v-.789h6.164v.789zm.014-2.264H6.904a12.583 12.583 0 0 0-.142-1.396h6.472c-.071.462-.117.929-.138 1.396zm-4-2.872V19.53c0-.506.406-.918.905-.918.241 0 .468.096.638.268a.92.92 0 0 1 .266.65v1.516h-1.81zm4.456 0H12.36V19.53c0-.597-.214-1.161-.606-1.602l1.83-3.467a.743.743 0 0 0-.299-.999.722.722 0 0 0-.984.303l-1.807 3.424a2.339 2.339 0 0 0-.967-.003L7.72 13.765a.722.722 0 0 0-.984-.303.743.743 0 0 0-.298.999l1.823 3.454c-.385.426-.62.993-.62 1.615v1.516H6.438a13.24 13.24 0 0 0-2.81-5.132 8.722 8.722 0 0 1-2.172-5.627C1.38 5.542 5.118 1.59 9.792 1.477a8.42 8.42 0 0 1 6.178 2.464 8.661 8.661 0 0 1 2.575 6.201 8.708 8.708 0 0 1-2.215 5.82 12.765 12.765 0 0 0-2.778 5.084z" fill="#000"/></symbol><symbol viewBox="0 0 220 210" id="icon-liked" xmlns="http://www.w3.org/2000/svg"><path d="M100.369 207.35s-2.015-4.797-12.25-14.378c-6.738-6.307-15.625-14.174-19.75-17.483-4.125-3.308-12.92-11.35-19.546-17.872-19.687-19.379-33.84-37.554-39.46-50.673-3.059-7.143-1.65-8.224-4.047-8.5l-.944-3.146L.37 70.761 1.312 50l1.807-6.924s3.356-1.537 6.92-8.71c4.772-9.607 14.406-20.19 23.144-25.423 3.826-2.292 5.472-3.954 5.875-5.933l6.538-1.492L60.927.261l13.758.314 6.294 3.38s3.09 2.437 8.685 5.377c3.738 1.965 8.697 5.643 11.021 8.174 7.098 7.73 12.034 7.596 20.114-.549 2.835-2.858 7.386-6.546 10.112-8.196 3.738-2.262 5.035-3.677 5.274-5.75l7.552-2.436L158.81.261l16.96.943 5.946 3.38c.423 1.953 2.364 2.336 6.697 5.177 9.368 6.143 19.388 17.238 23.749 26.298 2.802 5.823 3.472 6.724 4.069 8.336l2.565 6.926 1.573 19.49-1.259 16.659-1.664 8.205c-2.073.52-3.06 4.521-6.034 10.971-8.038 17.442-23.804 36.59-50.09 60.834-5.2 4.796-10.927 9.802-12.728 11.125-1.8 1.323-8.888 7.676-15.75 14.12-10.428 9.79-12.475 12.191-12.475 14.624l-5.034 1.653-4.966 1.259-5.281-.63zm16.394-25.611c3.592-1.873 6.895-4.972 37.795-35.452 14.53-14.331 27.035-27.593 30.176-32 5.137-7.207 11.158-19.447 14.279-29.026 2.047-6.283 1.994-21.925-.1-30-1.78-6.862-7.27-17.888-10.89-21.873-3.437-3.785-12.776-10.4-16.623-11.776-5.014-1.794-20.248-1.706-24.67.142-6.446 2.693-15.001 11.2-22.462 22.333-8.128 12.129-9.171 13.174-13.156 13.174-4.46 0-6.373-1.532-10.314-8.255-5.507-9.397-12.812-17.225-21.232-22.753-8.642-5.674-11.477-6.43-21.648-5.777-6.613.424-7.997.915-14.894 5.284-9.646 6.11-10.329 6.899-16.642 19.204-4.541 8.849-5.363 11.363-6.196 18.945-1.566 14.25-.016 22.177 6.85 35.036 8.474 15.868 14.78 23.455 40.568 48.816 36.396 35.791 36.03 35.487 42.765 35.487 1.925 0 4.802-.68 6.395-1.51z" fill="#c7a76b"/></symbol><symbol viewBox="0 0 33 35" fill="none" id="icon-sale" xmlns="http://www.w3.org/2000/svg"><path d="M23.469 10.281a.918.918 0 0 0-1.318 0L9.854 22.842a.966.966 0 0 0 0 1.346.919.919 0 0 0 1.317 0L23.47 11.627a.966.966 0 0 0 0-1.346zM12.935 8.67c-1.884 0-3.417 1.565-3.417 3.49 0 1.923 1.533 3.489 3.417 3.489 1.883 0 3.416-1.566 3.416-3.49 0-1.924-1.533-3.49-3.416-3.49zm0 5.075c-.857 0-1.553-.711-1.553-1.586 0-.874.696-1.586 1.553-1.586.856 0 1.552.712 1.552 1.586 0 .875-.696 1.586-1.552 1.586zM20.388 18.82c-1.884 0-3.416 1.566-3.416 3.49 0 1.924 1.532 3.49 3.416 3.49s3.416-1.566 3.416-3.49c0-1.924-1.532-3.49-3.416-3.49zm0 5.076c-.856 0-1.553-.711-1.553-1.586 0-.874.697-1.586 1.553-1.586s1.553.712 1.553 1.586c0 .875-.697 1.586-1.553 1.586z" fill="#000"/><path d="M30.505 17.927a.986.986 0 0 1 0-.854l1.205-2.518c.671-1.402.14-3.073-1.21-3.804l-2.424-1.314a.966.966 0 0 1-.491-.691l-.474-2.76c-.264-1.538-1.656-2.57-3.169-2.352l-2.716.392a.934.934 0 0 1-.796-.264l-1.972-1.948a2.762 2.762 0 0 0-3.916 0L12.57 3.762a.935.935 0 0 1-.796.265l-2.716-.393c-1.513-.219-2.905.814-3.169 2.351l-.474 2.76a.966.966 0 0 1-.491.692L2.5 10.751c-1.35.731-1.881 2.402-1.21 3.804l1.205 2.518c.13.271.13.583 0 .855L1.29 20.445c-.671 1.402-.14 3.073 1.21 3.805l2.423 1.313c.262.142.441.394.492.692l.474 2.76c.24 1.4 1.415 2.38 2.765 2.38.133 0 .268-.01.404-.029l2.716-.392a.934.934 0 0 1 .796.264l1.972 1.948c.55.543 1.253.814 1.958.814.704 0 1.41-.271 1.958-.814l1.972-1.948a.935.935 0 0 1 .796-.264l2.716.392c1.514.219 2.905-.814 3.169-2.351l.474-2.76a.966.966 0 0 1 .491-.692L30.5 24.25c1.35-.732 1.881-2.403 1.21-3.805l-1.205-2.518zm-.878 4.641l-2.424 1.314a2.855 2.855 0 0 0-1.454 2.044l-.474 2.76c-.089.52-.56.87-1.072.796l-2.716-.393a2.76 2.76 0 0 0-2.353.78l-1.972 1.95a.935.935 0 0 1-1.324 0l-1.972-1.95a2.765 2.765 0 0 0-2.353-.78l-2.716.392a.952.952 0 0 1-1.072-.795l-.474-2.76a2.855 2.855 0 0 0-1.454-2.044l-2.424-1.314a.98.98 0 0 1-.41-1.287l1.206-2.518a2.913 2.913 0 0 0 0-2.526l-1.205-2.518a.98.98 0 0 1 .41-1.287l2.423-1.314A2.855 2.855 0 0 0 7.25 9.074l.474-2.76c.089-.52.56-.87 1.071-.795l2.717.392a2.762 2.762 0 0 0 2.353-.78l1.972-1.95a.935.935 0 0 1 1.324 0l1.972 1.95a2.761 2.761 0 0 0 2.353.78l2.716-.392a.952.952 0 0 1 1.072.795l.474 2.76c.151.88.681 1.626 1.454 2.044l2.424 1.314a.98.98 0 0 1 .41 1.287l-1.206 2.518a2.913 2.913 0 0 0 0 2.526l1.205 2.518a.98.98 0 0 1-.41 1.287z" fill="#000"/><path d="M23.469 10.281a.918.918 0 0 0-1.318 0L9.854 22.842a.966.966 0 0 0 0 1.346.919.919 0 0 0 1.317 0L23.47 11.627a.966.966 0 0 0 0-1.346zM12.935 8.67c-1.884 0-3.417 1.565-3.417 3.49 0 1.923 1.533 3.489 3.417 3.489 1.883 0 3.416-1.566 3.416-3.49 0-1.924-1.533-3.49-3.416-3.49zm0 5.075c-.857 0-1.553-.711-1.553-1.586 0-.874.696-1.586 1.553-1.586.856 0 1.552.712 1.552 1.586 0 .875-.696 1.586-1.552 1.586zM20.388 18.82c-1.884 0-3.416 1.566-3.416 3.49 0 1.924 1.532 3.49 3.416 3.49s3.416-1.566 3.416-3.49c0-1.924-1.532-3.49-3.416-3.49zm0 5.076c-.856 0-1.553-.711-1.553-1.586 0-.874.697-1.586 1.553-1.586s1.553.712 1.553 1.586c0 .875-.697 1.586-1.553 1.586z" stroke="#fff" stroke-width=".5"/><path d="M30.505 17.927a.986.986 0 0 1 0-.854l1.205-2.518c.671-1.402.14-3.073-1.21-3.804l-2.424-1.314a.966.966 0 0 1-.491-.691l-.474-2.76c-.264-1.538-1.656-2.57-3.169-2.352l-2.716.392a.934.934 0 0 1-.796-.264l-1.972-1.948a2.762 2.762 0 0 0-3.916 0L12.57 3.762a.935.935 0 0 1-.796.265l-2.716-.393c-1.513-.219-2.905.814-3.169 2.351l-.474 2.76a.966.966 0 0 1-.491.692L2.5 10.751c-1.35.731-1.881 2.402-1.21 3.804l1.205 2.518c.13.271.13.583 0 .855L1.29 20.445c-.671 1.402-.14 3.073 1.21 3.805l2.423 1.313c.262.142.441.394.492.692l.474 2.76c.24 1.4 1.415 2.38 2.765 2.38.133 0 .268-.01.404-.029l2.716-.392a.934.934 0 0 1 .796.264l1.972 1.948c.55.543 1.253.814 1.958.814.704 0 1.41-.271 1.958-.814l1.972-1.948a.935.935 0 0 1 .796-.264l2.716.392c1.514.219 2.905-.814 3.169-2.351l.474-2.76a.966.966 0 0 1 .491-.692L30.5 24.25c1.35-.732 1.881-2.403 1.21-3.805l-1.205-2.518zm-.878 4.641l-2.424 1.314a2.855 2.855 0 0 0-1.454 2.044l-.474 2.76c-.089.52-.56.87-1.072.796l-2.716-.393a2.76 2.76 0 0 0-2.353.78l-1.972 1.95a.935.935 0 0 1-1.324 0l-1.972-1.95a2.765 2.765 0 0 0-2.353-.78l-2.716.392a.952.952 0 0 1-1.072-.795l-.474-2.76a2.855 2.855 0 0 0-1.454-2.044l-2.424-1.314a.98.98 0 0 1-.41-1.287l1.206-2.518a2.913 2.913 0 0 0 0-2.526l-1.205-2.518a.98.98 0 0 1 .41-1.287l2.423-1.314A2.855 2.855 0 0 0 7.25 9.074l.474-2.76c.089-.52.56-.87 1.071-.795l2.717.392a2.762 2.762 0 0 0 2.353-.78l1.972-1.95a.935.935 0 0 1 1.324 0l1.972 1.95a2.761 2.761 0 0 0 2.353.78l2.716-.392a.952.952 0 0 1 1.072.795l.474 2.76c.151.88.681 1.626 1.454 2.044l2.424 1.314a.98.98 0 0 1 .41 1.287l-1.206 2.518a2.913 2.913 0 0 0 0 2.526l1.205 2.518a.98.98 0 0 1-.41 1.287z" stroke="#fff" stroke-width=".5"/></symbol><symbol viewBox="0 0 29 28" fill="none" id="icon-sconces" xmlns="http://www.w3.org/2000/svg"><path d="M29 20.282c-.276.427-.488.498-.977.334l-2.463-.833c-.963-.328-1.395-.926-1.41-1.953a79.216 79.216 0 0 1 0-1.823c.008-.186-.07-.243-.233-.286-1.847-.441-2.959-1.603-3.334-3.477-.064-.306-.063-.627-.063-.933-.015-1.632.014-3.27-.029-4.902-.056-2.259-1.678-4.31-3.837-4.93-2.845-.827-5.734.67-6.69 3.484a6.04 6.04 0 0 0-.282 1.581c-.043 1.005-.015 2.017-.015 3.021 0 .043.008.093.015.171h1.67c.432 0 .836.107 1.197.37.516.386.736.927.743 1.554.007.599.014 1.197 0 1.796a1.58 1.58 0 0 0 .184.784c1.472 2.95 2.938 5.9 4.403 8.849.035.078.078.157.113.228.312.577.064 1.019-.594 1.026-1.154.014-2.301.007-3.455.007-.68 0-.68-.007-.87.634-.539 1.817-2.287 3.071-4.106 3.014-2.025-.064-3.625-1.489-4.028-3.37-.05-.242-.142-.278-.354-.278-1.253.007-2.513 0-3.766 0-.149 0-.305-.007-.446-.05-.361-.12-.474-.52-.276-.926.743-1.51 1.5-3.021 2.244-4.532.786-1.589 1.571-3.17 2.357-4.76.07-.135.106-.306.106-.455.014-.634.007-1.276.007-1.91.007-1.197.779-1.974 1.975-1.974h1.65v-.555c.014-1.033-.036-2.074.056-3.107C8.72 3.68 9.936 1.884 12.046.78c2.62-1.368 5.536-.905 7.68 1.14 1.098 1.047 1.735 2.351 1.94 3.862.064.484.064.983.064 1.475.007 1.396 0 2.793.007 4.19.007.897.283 1.695.949 2.322.396.378.856.642 1.45.755v-.577c.008-.563-.006-1.118.03-1.681.049-.706.424-1.233 1.068-1.482.984-.378 1.99-.691 2.994-1.02.347-.113.553.122.75.364C29 13.52 29 16.898 29 20.282zM1.597 23.11h14.909c-.021-.057-.029-.092-.043-.128-1.352-2.722-2.704-5.436-4.049-8.165-.085-.171-.191-.193-.354-.193-1.989.007-3.978.007-5.974 0-.206 0-.312.057-.404.25-1.19 2.422-2.393 4.83-3.596 7.246-.156.328-.312.648-.489.99zm26.157-3.869v-8.008c-.687.235-1.352.448-2.003.684-.276.1-.368.342-.375.612-.008.321 0 .649 0 .97v4.332c0 .277.035.57.311.676.673.257 1.36.485 2.067.734zM12.06 13.384c0-.634.014-1.24-.007-1.845a.558.558 0 0 0-.573-.549 548.75 548.75 0 0 0-4.835 0c-.29 0-.552.193-.567.463-.028.642-.007 1.283-.007 1.931h5.99zM6.142 24.38c.248 1.325 1.444 2.394 2.924 2.394a2.947 2.947 0 0 0 2.916-2.394h-5.84z" fill="#000"/><path d="M5.739 18.272a.588.588 0 0 1 .552.77 1.71 1.71 0 0 1-.128.313c-.354.713-.708 1.425-1.061 2.13-.199.393-.531.535-.85.371-.326-.164-.432-.513-.248-.898.368-.762.75-1.524 1.133-2.287.127-.242.311-.406.602-.399z" fill="#000"/></symbol><symbol viewBox="0 0 222 132" id="icon-select" xmlns="http://www.w3.org/2000/svg"><path d="M106 129.153C103.017 127.53 4.038 28.214 2.285 25.084c-3.057-5.459-1.052-10.76 6.921-18.302C15.363.96 17.697-.05 22.786.903c3.101.582 9.576 6.696 45.905 43.345l42.295 42.668 42.257-42.726C182.215 14.897 196.367 1.265 198.257.83c5.36-1.234 9.07.343 14.916 6.341 8.17 8.382 9.513 12.172 6.392 18.044-.79 1.486-24.336 25.57-52.326 53.523-47.306 47.242-51.166 50.855-54.814 51.298-2.304.28-4.958-.085-6.425-.883z" fill="#c5a363"/></symbol><symbol viewBox="0 0 31 31" fill="none" id="icon-still" xmlns="http://www.w3.org/2000/svg"><path d="M20.083 14.583h-3.666v-3.666a.916.916 0 1 0-1.834 0v3.666h-3.666a.916.916 0 1 0 0 1.834h3.666v3.666a.916.916 0 1 0 1.834 0v-3.666h3.666a.916.916 0 1 0 0-1.834z" fill="#000"/><circle cx="15.5" cy="15.5" r="14.8" stroke="#000" stroke-width="1.4"/></symbol><symbol viewBox="0 0 23 21" fill="none" id="icon-telegram" xmlns="http://www.w3.org/2000/svg"><path d="M18.175 20.27a.893.893 0 0 1-.501-.154l-5.677-3.85-3.045 2.19a.895.895 0 0 1-1.386-.497l-1.529-5.794-5.463-2.089a.894.894 0 0 1-.01-1.665L21.333.146a.894.894 0 0 1 1.225 1.002l-3.506 18.396a.894.894 0 0 1-.878.726zm-5.68-5.826l5.057 3.43L20.28 3.56l-9.853 9.48 2.044 1.387c.009.005.016.011.024.017zm-4.21-.763l.678 2.565 1.459-1.05-1.91-1.295a.89.89 0 0 1-.226-.22zM3.354 9.225l3.75 1.434a.894.894 0 0 1 .545.606l.476 1.803a.894.894 0 0 1 .27-.55l9.388-9.035-14.43 5.742z" fill="#C6A464"/></symbol><symbol viewBox="0 0 24 33" fill="none" id="icon-torchere" xmlns="http://www.w3.org/2000/svg"><path d="M.384 6.353l2.584-3.1a.517.517 0 0 1 .397-.187h.517v-1.55c0-.285.23-.516.516-.516h7.234c.286 0 .517.231.517.517V7.2h6.717c.286 0 .517.232.517.517v1.55h.517c.153 0 .298.068.397.186l2.583 3.1a.516.516 0 0 1-.397.848h-1.55c0 1.14-.927 2.067-2.067 2.067A2.07 2.07 0 0 1 16.8 13.4h-1.55a.516.516 0 0 1-.397-.847l2.584-3.1a.516.516 0 0 1 .397-.187h.516V8.234h-6.2v19.644c2.329.084 4.65.735 4.65 2.057 0 1.42-2.678 2.067-5.167 2.067-2.488 0-5.167-.647-5.167-2.067 0-1.322 2.322-1.973 4.65-2.057V2.033h-6.2v1.033h.517c.153 0 .299.068.397.186l2.584 3.1a.516.516 0 0 1-.397.848h-1.55c0 1.14-.928 2.067-2.068 2.067A2.069 2.069 0 0 1 2.332 7.2H.782a.516.516 0 0 1-.398-.847zm18.482 8.081c.57 0 1.034-.463 1.034-1.033h-2.067c0 .57.464 1.033 1.033 1.033zm-.791-4.133l-1.723 2.067h5.028L19.657 10.3h-1.582zM7.499 29.935c0 .266 1.421 1.034 4.133 1.034 2.712 0 4.134-.768 4.134-1.034 0-.248-1.242-.934-3.617-1.023v.507a.517.517 0 1 1-1.033 0v-.507c-2.376.09-3.617.775-3.617 1.023zm-3.1-21.701c.57 0 1.033-.464 1.033-1.034H3.365c0 .57.463 1.034 1.033 1.034zm2.513-2.067L5.19 4.1H3.607L1.885 6.167h5.027z" fill="#000" stroke="#000" stroke-width=".25"/></symbol><symbol viewBox="0 0 22 23" fill="none" id="icon-viber" xmlns="http://www.w3.org/2000/svg"><path d="M18.855 3.416c-1.654-1.621-4.328-2.407-7.949-2.336-3.651.071-6.092.712-7.681 2.017C1.688 4.357.973 6.203.973 8.903v2.757c0 3.188 1.708 6.693 4.973 7.224a.691.691 0 1 0 .222-1.366c-2.476-.402-3.813-3.318-3.813-5.858V8.903c0-3.872 1.435-6.3 8.578-6.44 3.238-.065 5.575.589 6.954 1.94 1.075 1.054 1.597 2.526 1.597 4.5v2.757c0 4.174-1.873 6.014-6.678 6.556H9.399a.691.691 0 0 0-.49.203l-2.4 2.4a.692.692 0 0 0 .978.979l2.198-2.199h3.16a.697.697 0 0 0 .076-.004c2.75-.305 4.633-1.021 5.925-2.252 1.36-1.295 2.02-3.154 2.02-5.683V8.903c0-2.332-.676-4.178-2.01-5.487z" fill="#C6A464" stroke="#C6A464" stroke-width=".5"/><path d="M11.351 5.591c1.115 0 2.162.434 2.95 1.222a4.144 4.144 0 0 1 1.222 2.95.691.691 0 0 0 1.383 0 5.518 5.518 0 0 0-1.627-3.928 5.517 5.517 0 0 0-3.927-1.626.691.691 0 1 0 0 1.382z" fill="#C6A464" stroke="#C6A464" stroke-width=".5"/><path d="M11.351 8.023c.96 0 1.74.78 1.74 1.74a.691.691 0 1 0 1.383 0 3.127 3.127 0 0 0-3.123-3.123.691.691 0 0 0 0 1.383zM8.25 9.207a.692.692 0 0 0 .781 1.142c.248-.17.829-.567.788-1.36-.026-.475-.454-1.153-.81-1.639-.518-.71-.965-1.137-1.326-1.27a1.532 1.532 0 0 0-1.046-.008c-.742.25-1.281.702-1.558 1.307-.27.589-.264 1.265.017 1.957.664 1.63 1.594 3.057 2.77 4.247 1.185 1.17 2.611 2.1 4.242 2.764.352.144.702.216 1.037.216.322 0 .631-.066.92-.198.604-.277 1.056-.816 1.306-1.56a1.53 1.53 0 0 0-.007-1.043c-.134-.362-.561-.81-1.271-1.329-.486-.354-1.164-.783-1.64-.809-.792-.04-1.19.54-1.358.788a.691.691 0 1 0 1.14.78c.076-.11.12-.16.144-.181.388.124 1.495.937 1.694 1.249.005.02.006.05-.013.105-.087.26-.257.598-.572.743-.295.135-.63.052-.859-.041-1.46-.596-2.736-1.426-3.785-2.462-1.042-1.054-1.872-2.33-2.467-3.79-.093-.23-.176-.565-.041-.86.144-.314.483-.485.741-.572.055-.018.086-.017.107-.012.311.2 1.124 1.306 1.249 1.694a1.12 1.12 0 0 1-.182.142z" fill="#C6A464" stroke="#C6A464" stroke-width=".5"/></symbol><symbol viewBox="0 0 22 22" fill="none" id="icon-whatsapp" xmlns="http://www.w3.org/2000/svg"><path d="M10.951 1C5.464 1 1 5.464 1 10.951c0 2.148.872 4.076 1.246 4.806a.692.692 0 0 0 1.23-.633c-.328-.64-1.093-2.327-1.093-4.173 0-4.724 3.844-8.568 8.568-8.568 4.725 0 8.57 3.844 8.57 8.568 0 4.725-3.845 8.569-8.57 8.569a8.882 8.882 0 0 1-3.862-.915.69.69 0 0 0-.521-.041l-4.356 1.392a.691.691 0 0 0 .421 1.317l4.093-1.308c.856.397 2.363.938 4.225.938 5.488 0 9.952-4.464 9.952-9.952C20.903 5.464 16.44 1 10.951 1z" fill="#C6A464" stroke="#C6A464" stroke-width=".5"/><path d="M8.99 9.254a.692.692 0 0 0 .842 1.097c.212-.163.775-.595.692-1.368-.05-.46-.5-1.091-.867-1.54-.537-.655-.992-1.043-1.35-1.153a1.497 1.497 0 0 0-1.02.05c-.704.28-1.2.747-1.436 1.347-.23.585-.189 1.24.12 1.893.722 1.524 1.687 2.839 2.867 3.91l.014.013c1.197 1.059 2.614 1.874 4.21 2.424.304.104.601.156.887.156.359 0 .699-.082 1.008-.245.571-.3.98-.846 1.182-1.578a1.495 1.495 0 0 0-.064-1.016c-.15-.345-.585-.755-1.296-1.216-.486-.316-1.162-.692-1.627-.692-.776.003-1.143.61-1.282.84a.691.691 0 0 0 1.183.716c.054-.09.09-.138.11-.163.391.113 1.436.796 1.65 1.084a.167.167 0 0 1-.008.08c-.068.247-.209.572-.493.722-.265.14-.582.08-.8.005-1.42-.49-2.678-1.212-3.737-2.146l-.001-.001c-1.049-.95-1.908-2.123-2.553-3.484-.098-.209-.193-.517-.083-.796.117-.299.425-.475.662-.57a.162.162 0 0 1 .08-.016c.31.181 1.103 1.144 1.26 1.52a1.293 1.293 0 0 1-.15.127z" fill="#C6A464" stroke="#C6A464" stroke-width=".5"/></symbol></svg>