<svg width="30" height="64" viewBox="0 0 30 64" fill="none" xmlns="http://www.w3.org/2000/svg"><path d="M10.332 15.663c.698-1.816 2.269-2.735 2.967-2.968h4.539v13.267H5.793v-1.92c.757-.582 2.444-2.06 3.142-3.317.873-1.571.524-2.793 1.397-5.062z" fill="#47708A"/><path d="M24.994 15.663c-.699-1.816-2.27-2.735-2.968-2.968h-4.538v13.267h12.044v-1.92c-.756-.582-2.444-2.06-3.142-3.317-.873-1.571-.524-2.793-1.396-5.062zm-10.997-4.015h7.157v-2.27l-1.746-1.57h-3.665l-1.746 1.57v2.27zM29.01 60.174c0 1.832-5.315 3.317-11.87 3.317-6.556 0-11.87-1.485-11.87-3.317 0-1.831 5.314-4.887 11.87-4.887 6.555 0 11.87 3.056 11.87 4.887z" fill="#47708A"/><path d="M17.314 7.11c0-1.572 0-6.11-4.715-6.11C8.221 1 2.475 6.237 1.253 16.012c-1.222 9.775 2.132 15.884 6.81 19.55 4.676 3.666 6.455 3.142 8.375 6.459 1.536 2.653 1.05 12.684.876 16.059l-1.397 2.967" stroke="#47708A" stroke-width="2"/><path fill="#47708A" d="M15.044 45.686h4.538v11.172h-4.538z"/></svg>