<svg width="24" height="25" viewBox="0 0 24 25" fill="none" xmlns="http://www.w3.org/2000/svg">
<path d="M7.27003 15.9135H20.3143C21.7934 15.9135 23 14.7069 23 13.2278V7.73958C23 7.73472 23 7.72499 23 7.72012C23 7.70552 23 7.69579 23 7.6812C23 7.67147 23 7.66174 22.9951 7.65201C22.9951 7.64227 22.9903 7.62768 22.9903 7.61795C22.9903 7.60822 22.9854 7.59849 22.9854 7.58875C22.9805 7.57902 22.9805 7.56929 22.9757 7.5547C22.9708 7.54497 22.9708 7.53523 22.9659 7.5255C22.9611 7.51577 22.9611 7.50604 22.9562 7.49631C22.9513 7.48658 22.9465 7.47685 22.9416 7.46225C22.9368 7.45252 22.9319 7.44279 22.927 7.43793C22.9222 7.4282 22.9173 7.41846 22.9124 7.40873C22.9076 7.399 22.9027 7.39414 22.8978 7.38441C22.893 7.37468 22.8832 7.36494 22.8784 7.35521C22.8735 7.34548 22.8686 7.34062 22.8589 7.33089C22.854 7.32116 22.8443 7.31629 22.8394 7.30656C22.8346 7.29683 22.8248 7.29196 22.82 7.28223C22.8151 7.2725 22.8054 7.26764 22.8005 7.26277C22.7908 7.25304 22.7859 7.24817 22.7762 7.23844C22.7665 7.23358 22.7616 7.22385 22.7519 7.21898C22.7421 7.21412 22.7324 7.20438 22.7227 7.19952C22.7129 7.19465 22.7081 7.18979 22.6983 7.18492C22.6886 7.18006 22.6789 7.17519 22.6692 7.16546C22.6594 7.1606 22.6497 7.15573 22.64 7.15087C22.6302 7.146 22.6205 7.14113 22.6108 7.13627C22.601 7.1314 22.5913 7.12654 22.5816 7.12167C22.5718 7.11681 22.5621 7.11681 22.5524 7.11194C22.5427 7.10708 22.5281 7.10221 22.5183 7.10221C22.5086 7.10221 22.4989 7.09735 22.494 7.09735C22.4794 7.09248 22.4697 7.09248 22.4551 7.09248C22.4502 7.09248 22.4453 7.08761 22.4356 7.08761L5.90284 4.80572V2.4995C5.90284 2.47518 5.90284 2.45085 5.89798 2.43139C5.89798 2.42652 5.89798 2.42166 5.89311 2.41193C5.89311 2.39733 5.88825 2.38273 5.88825 2.36814C5.88338 2.35354 5.88338 2.34381 5.87852 2.32921C5.87852 2.31948 5.87365 2.31462 5.87365 2.30489C5.86879 2.29029 5.86392 2.27569 5.85905 2.2611C5.85905 2.25623 5.85419 2.2465 5.85419 2.24163C5.84932 2.22704 5.84446 2.21731 5.83473 2.20271C5.82986 2.19785 5.82986 2.18812 5.825 2.18325C5.82013 2.17352 5.81527 2.16379 5.80553 2.15406C5.80067 2.14433 5.7958 2.13946 5.79094 2.12973C5.78607 2.12 5.78121 2.11513 5.77634 2.1054C5.77148 2.09567 5.76175 2.08594 5.75688 2.07621C5.75202 2.07134 5.74715 2.06648 5.74228 2.06161C5.73255 2.05188 5.72282 2.04215 5.71309 2.03242C5.70823 2.02756 5.70336 2.02269 5.69849 2.01782C5.68876 2.00809 5.67903 1.99836 5.66444 1.98863C5.65957 1.98377 5.64984 1.9789 5.64498 1.97404C5.63524 1.9643 5.62551 1.95944 5.61578 1.94971C5.60119 1.93998 5.58659 1.93025 5.57686 1.92538C5.57199 1.92052 5.56713 1.92052 5.56226 1.91565C5.5428 1.90592 5.51847 1.89619 5.49901 1.88646L1.91318 0.378171C1.57747 0.237073 1.1931 0.392768 1.052 0.728483C0.910902 1.0642 1.0666 1.44857 1.40231 1.58967L4.58431 2.93253V5.91018V6.38212V10.002V13.2375V17.3245C4.58431 18.6868 5.60605 19.8156 6.92459 19.9859C6.68618 20.3849 6.54508 20.8519 6.54508 21.3482C6.54508 22.8127 7.73711 23.9999 9.19675 23.9999C10.6564 23.9999 11.8484 22.8079 11.8484 21.3482C11.8484 20.8617 11.717 20.3995 11.4835 20.0102H17.3901C17.1566 20.4043 17.0252 20.8617 17.0252 21.3482C17.0252 22.8127 18.2173 23.9999 19.6769 23.9999C21.1365 23.9999 22.3286 22.8079 22.3286 21.3482C22.3286 19.8886 21.1365 18.6966 19.6769 18.6966H7.27003C6.51102 18.6966 5.89798 18.0786 5.89798 17.3245V15.5438C6.29694 15.7773 6.76889 15.9135 7.27003 15.9135ZM10.5396 21.3434C10.5396 22.0829 9.93629 22.6814 9.20161 22.6814C8.46693 22.6814 7.86362 22.078 7.86362 21.3434C7.86362 20.6087 8.46693 20.0054 9.20161 20.0054C9.93629 20.0054 10.5396 20.6038 10.5396 21.3434ZM21.0198 21.3434C21.0198 22.0829 20.4165 22.6814 19.6818 22.6814C18.9471 22.6814 18.3438 22.078 18.3438 21.3434C18.3438 20.6087 18.9471 20.0054 19.6818 20.0054C20.4165 20.0054 21.0198 20.6038 21.0198 21.3434ZM20.3143 14.5999H7.27003C6.51102 14.5999 5.89798 13.9819 5.89798 13.2278V9.99228V6.37239V6.12912L21.6863 8.30397V13.2229C21.6863 13.9868 21.0684 14.5999 20.3143 14.5999Z" fill="#C6A464" stroke="#C6A464" stroke-width="0.5"/>
</svg>
