<svg width="31" height="31" viewBox="0 0 31 31" fill="none" xmlns="http://www.w3.org/2000/svg">
<circle cx="15.5" cy="15.5" r="14.8" stroke="black" stroke-width="1.4"/>
<path d="M10.535 11.745V19.688C10.535 19.7833 10.5653 19.8613 10.626 19.922C10.6953 19.974 10.7733 20 10.86 20C10.9467 20 11.0203 19.974 11.081 19.922C11.1417 19.87 11.172 19.792 11.172 19.688V11.745H12.771C12.8663 11.745 12.94 11.7147 12.992 11.654C13.0527 11.5933 13.083 11.5197 13.083 11.433C13.083 11.2163 12.979 11.108 12.771 11.108H8.949C8.85367 11.108 8.77567 11.1427 8.715 11.212C8.663 11.2727 8.637 11.3463 8.637 11.433C8.637 11.5197 8.663 11.5933 8.715 11.654C8.77567 11.7147 8.85367 11.745 8.949 11.745H10.535ZM20.9669 19.675V11.433C20.9669 11.329 20.9366 11.2423 20.8759 11.173C20.8239 11.1037 20.7589 11.069 20.6809 11.069C20.5596 11.069 20.4556 11.1383 20.3689 11.277L18.1069 14.956L15.8449 11.277C15.7669 11.1383 15.6672 11.069 15.5459 11.069C15.3552 11.069 15.2599 11.1903 15.2599 11.433V19.675C15.2599 19.779 15.2902 19.8613 15.3509 19.922C15.4116 19.974 15.4852 20 15.5719 20C15.7886 20 15.8969 19.8917 15.8969 19.675V12.564L17.8339 15.723C17.9119 15.853 18.0029 15.918 18.1069 15.918C18.2109 15.918 18.3019 15.853 18.3799 15.723L20.3299 12.564V19.675C20.3299 19.779 20.3602 19.8613 20.4209 19.922C20.4902 19.974 20.5639 20 20.6419 20C20.8586 20 20.9669 19.8917 20.9669 19.675Z" fill="black"/>
<path d="M10.535 11.745H11.035V11.245H10.535V11.745ZM10.626 19.922L10.2724 20.2756L10.2976 20.3007L10.326 20.322L10.626 19.922ZM11.081 19.922L11.4064 20.3016L11.4064 20.3016L11.081 19.922ZM11.172 11.745V11.245H10.672V11.745H11.172ZM12.992 11.654L12.6384 11.3004L12.6249 11.314L12.6124 11.3286L12.992 11.654ZM8.715 11.212L8.33869 10.8827L8.33537 10.8866L8.715 11.212ZM8.715 11.654L8.33537 11.9794L8.34787 11.994L8.36145 12.0076L8.715 11.654ZM10.035 11.745V19.688H11.035V11.745H10.035ZM10.035 19.688C10.035 19.8998 10.1072 20.1103 10.2724 20.2756L10.9796 19.5684C10.997 19.5859 11.0131 19.6095 11.0238 19.6368C11.034 19.663 11.035 19.6822 11.035 19.688H10.035ZM10.326 20.322C10.4819 20.4389 10.6651 20.5 10.86 20.5V19.5C10.8675 19.5 10.8799 19.5013 10.8946 19.5062C10.9093 19.5111 10.92 19.5175 10.926 19.522L10.326 20.322ZM10.86 20.5C11.0551 20.5 11.2472 20.4381 11.4064 20.3016L10.7556 19.5424C10.7711 19.5291 10.7911 19.517 10.8138 19.509C10.836 19.5012 10.8528 19.5 10.86 19.5V20.5ZM11.4064 20.3016C11.6092 20.1278 11.672 19.8909 11.672 19.688H10.672C10.672 19.6925 10.6712 19.6742 10.6832 19.6433C10.6964 19.6093 10.7205 19.5725 10.7556 19.5424L11.4064 20.3016ZM11.672 19.688V11.745H10.672V19.688H11.672ZM11.172 12.245H12.771V11.245H11.172V12.245ZM12.771 12.245C12.9813 12.245 13.2062 12.1724 13.3716 11.9794L12.6124 11.3286C12.6376 11.2992 12.671 11.2749 12.7074 11.2599C12.7416 11.2458 12.7659 11.245 12.771 11.245V12.245ZM13.3456 12.0076C13.5011 11.8521 13.583 11.6508 13.583 11.433H12.583C12.583 11.4168 12.5861 11.3916 12.5979 11.3629C12.6098 11.3341 12.6257 11.3132 12.6384 11.3004L13.3456 12.0076ZM13.583 11.433C13.583 11.2526 13.54 11.0246 13.3657 10.843C13.1877 10.6576 12.9574 10.608 12.771 10.608V11.608C12.7926 11.608 12.7183 11.6126 12.6443 11.5355C12.574 11.4623 12.583 11.3967 12.583 11.433H13.583ZM12.771 10.608H8.949V11.608H12.771V10.608ZM8.949 10.608C8.71522 10.608 8.49803 10.7007 8.33871 10.8827L9.09129 11.5413C9.07768 11.5568 9.05453 11.5765 9.02207 11.5909C8.99004 11.6051 8.96309 11.608 8.949 11.608V10.608ZM8.33537 10.8866C8.19889 11.0458 8.137 11.2379 8.137 11.433H9.137C9.137 11.4402 9.13581 11.457 9.128 11.4792C9.11998 11.5019 9.10787 11.5219 9.09463 11.5374L8.33537 10.8866ZM8.137 11.433C8.137 11.6281 8.19889 11.8202 8.33537 11.9794L9.09463 11.3286C9.10787 11.344 9.11998 11.3641 9.128 11.3868C9.13581 11.409 9.137 11.4258 9.137 11.433H8.137ZM8.36145 12.0076C8.52672 12.1728 8.73721 12.245 8.949 12.245V11.245C8.95478 11.245 8.97398 11.246 9.00022 11.2562C9.02749 11.2669 9.05113 11.283 9.06855 11.3004L8.36145 12.0076ZM8.949 12.245H10.535V11.245H8.949V12.245ZM20.8759 11.173L20.4759 11.473L20.4872 11.4881L20.4996 11.5023L20.8759 11.173ZM20.3689 11.277L19.9449 11.012L19.943 11.0151L20.3689 11.277ZM18.1069 14.956L17.681 15.2179L18.1069 15.9106L18.5328 15.2179L18.1069 14.956ZM15.8449 11.277L15.4091 11.5221L15.4139 11.5306L15.419 11.5389L15.8449 11.277ZM15.3509 19.922L14.9973 20.2756L15.0109 20.2891L15.0255 20.3016L15.3509 19.922ZM15.8969 12.564L16.3231 12.3026L15.3969 10.792V12.564H15.8969ZM17.8339 15.723L18.2627 15.4657L18.2601 15.4616L17.8339 15.723ZM18.3799 15.723L17.9544 15.4603L17.9511 15.4658L18.3799 15.723ZM20.3299 12.564H20.8299V10.8021L19.9044 12.3014L20.3299 12.564ZM20.4209 19.922L20.0673 20.2756L20.0925 20.3007L20.1209 20.322L20.4209 19.922ZM21.4669 19.675V11.433H20.4669V19.675H21.4669ZM21.4669 11.433C21.4669 11.2246 21.4029 11.016 21.2522 10.8437L20.4996 11.5023C20.488 11.489 20.4782 11.4723 20.4722 11.4552C20.4665 11.4389 20.4669 11.4299 20.4669 11.433H21.4669ZM21.2759 10.873C21.1415 10.6939 20.9354 10.569 20.6809 10.569V11.569C20.6428 11.569 20.597 11.5597 20.5528 11.5362C20.5104 11.5135 20.4861 11.4866 20.4759 11.473L21.2759 10.873ZM20.6809 10.569C20.3294 10.569 20.0874 10.7839 19.9449 11.012L20.7929 11.542C20.8097 11.5151 20.8115 11.5222 20.7892 11.537C20.7775 11.5449 20.7609 11.5535 20.7402 11.5599C20.7193 11.5663 20.6989 11.569 20.6809 11.569V10.569ZM19.943 11.0151L17.681 14.6941L18.5328 15.2179L20.7948 11.5389L19.943 11.0151ZM18.5328 14.6941L16.2708 11.0151L15.419 11.5389L17.681 15.2179L18.5328 14.6941ZM16.2807 11.0319C16.1458 10.7922 15.9044 10.569 15.5459 10.569V11.569C15.5279 11.569 15.5062 11.5663 15.4832 11.5591C15.4601 11.5518 15.4408 11.5417 15.4261 11.5315C15.3979 11.5118 15.3961 11.499 15.4091 11.5221L16.2807 11.0319ZM15.5459 10.569C15.337 10.569 15.1029 10.6415 14.9382 10.8511C14.7916 11.0377 14.7599 11.2598 14.7599 11.433H15.7599C15.7599 11.3635 15.7758 11.4036 15.7245 11.4689C15.6959 11.5054 15.6574 11.5345 15.616 11.552C15.5777 11.5683 15.5505 11.569 15.5459 11.569V10.569ZM14.7599 11.433V19.675H15.7599V11.433H14.7599ZM14.7599 19.675C14.7599 19.8816 14.8236 20.1018 14.9973 20.2756L15.7044 19.5684C15.7265 19.5905 15.7426 19.6168 15.7518 19.6419C15.7604 19.6653 15.7599 19.6787 15.7599 19.675H14.7599ZM15.0255 20.3016C15.1847 20.4381 15.3768 20.5 15.5719 20.5V19.5C15.5791 19.5 15.5959 19.5012 15.6181 19.509C15.6408 19.517 15.6608 19.5291 15.6763 19.5424L15.0255 20.3016ZM15.5719 20.5C15.7573 20.5 15.9882 20.4533 16.1692 20.2723C16.3502 20.0913 16.3969 19.8604 16.3969 19.675H15.3969C15.3969 19.7063 15.3894 19.6379 15.4621 19.5652C15.5348 19.4925 15.6032 19.5 15.5719 19.5V20.5ZM16.3969 19.675V12.564H15.3969V19.675H16.3969ZM15.4706 12.8254L17.4076 15.9844L18.2601 15.4616L16.3231 12.3026L15.4706 12.8254ZM17.4051 15.9802C17.5283 16.1856 17.7544 16.418 18.1069 16.418V15.418C18.134 15.418 18.1622 15.4224 18.1894 15.4315C18.2163 15.4404 18.237 15.4522 18.2513 15.4624C18.2777 15.4812 18.2782 15.4916 18.2626 15.4658L17.4051 15.9802ZM18.1069 16.418C18.4594 16.418 18.6854 16.1856 18.8086 15.9802L17.9511 15.4658C17.9356 15.4916 17.9361 15.4812 17.9625 15.4624C17.9768 15.4522 17.9975 15.4404 18.0243 15.4315C18.0516 15.4224 18.0798 15.418 18.1069 15.418V16.418ZM18.8054 15.9856L20.7554 12.8266L19.9044 12.3014L17.9544 15.4604L18.8054 15.9856ZM19.8299 12.564V19.675H20.8299V12.564H19.8299ZM19.8299 19.675C19.8299 19.8816 19.8936 20.1018 20.0673 20.2756L20.7744 19.5684C20.7965 19.5905 20.8126 19.6168 20.8218 19.6419C20.8304 19.6653 20.8299 19.6787 20.8299 19.675H19.8299ZM20.1209 20.322C20.2667 20.4313 20.4437 20.5 20.6419 20.5V19.5C20.6597 19.5 20.678 19.5032 20.6946 19.509C20.7105 19.5147 20.7193 19.5208 20.7209 19.522L20.1209 20.322ZM20.6419 20.5C20.8273 20.5 21.0582 20.4533 21.2392 20.2723C21.4202 20.0913 21.4669 19.8604 21.4669 19.675H20.4669C20.4669 19.7063 20.4594 19.6379 20.5321 19.5652C20.6048 19.4925 20.6732 19.5 20.6419 19.5V20.5Z" fill="black"/>
</svg>
