<svg width="32" height="32" viewBox="0 0 32 32" fill="none" xmlns="http://www.w3.org/2000/svg">
<path d="M1.26215 15.8774L0.012154 22.1274C-0.024596 22.3111 0.0229665 22.5014 0.141654 22.6462C0.260342 22.7911 0.437779 22.875 0.625029 22.875H2.50003V24.125C2.50003 26.1968 4.17822 27.875 6.25003 27.875C8.31778 27.875 10 26.1927 10 24.125V23.5C10 22.4661 10.8412 21.625 11.875 21.625H12.9976C13.58 21.6273 14.141 21.7665 14.645 22.0257C13.9568 22.4716 13.5 23.2457 13.5 24.125C13.5 25.2878 14.298 26.2676 15.375 26.5459V31.375C15.375 31.7202 15.6548 32 16 32C16.3452 32 16.625 31.7202 16.625 31.375V26.5459C17.7021 26.2676 18.5 25.2878 18.5 24.125C18.5 23.2464 18.0441 22.4728 17.3568 22.0268C17.8773 21.7605 18.4338 21.6275 19.0028 21.625H20.125C21.1589 21.625 22 22.4661 22 23.5V24.125C22 26.1927 23.6823 27.875 25.75 27.875C26.7512 27.875 27.6928 27.4848 28.4013 26.7763C29.1098 26.0678 29.5 25.1262 29.5 24.125V22.875H31.375C31.5623 22.875 31.7397 22.7911 31.8583 22.6462C31.977 22.5014 32.0246 22.3111 31.9878 22.1274L30.7378 15.8774C30.6795 15.5853 30.423 15.375 30.125 15.375H27.625C27.3271 15.375 27.0706 15.5853 27.0122 15.8774L25.7622 22.1274C25.7254 22.3111 25.773 22.5014 25.8917 22.6462C26.0103 22.7911 26.1878 22.875 26.375 22.875H28.25V24.125C28.25 24.7923 27.9898 25.42 27.5175 25.8924C27.045 26.3648 26.4173 26.625 25.75 26.625C24.3715 26.625 23.25 25.5035 23.25 24.125V23.5C23.25 22.3438 22.6184 21.3331 21.6826 20.7926C21.883 20.4942 22 20.1356 22 19.75V19.125H23.875C24.0623 19.125 24.2397 19.0411 24.3583 18.8962C24.477 18.7514 24.5246 18.5611 24.4878 18.3774L23.2378 12.1274C23.1795 11.8353 22.923 11.625 22.625 11.625H20.125C19.8271 11.625 19.5706 11.8353 19.5122 12.1274L18.2622 18.3774C18.2254 18.5611 18.273 18.7514 18.3917 18.8962C18.5103 19.0411 18.6878 19.125 18.875 19.125H20.75V19.75C20.75 20.0946 20.4697 20.375 20.125 20.375C20.125 20.375 18.9982 20.375 18.9972 20.375C18.1903 20.3786 17.377 20.5796 16.625 21.0006V14.0175C17.3525 13.7595 17.875 13.0648 17.875 12.25C17.875 11.4352 17.3525 10.7405 16.625 10.4825V7.42088C17.7021 7.14262 18.5 6.16275 18.5 5C20.2232 5 21.625 3.59812 21.625 1.875V0.625C21.625 0.279813 21.3452 0 21 0H11C10.6548 0 10.375 0.279813 10.375 0.625V1.875C10.375 3.59812 11.7769 5 13.5 5C13.5 6.16275 14.298 7.14262 15.375 7.42088V10.4825C14.6476 10.7405 14.125 11.4352 14.125 12.25C14.125 13.0648 14.6476 13.7595 15.375 14.0175V20.9985C14.658 20.5952 13.8467 20.3783 13.0025 20.375C13.0017 20.375 11.875 20.375 11.875 20.375C11.5304 20.375 11.25 20.0946 11.25 19.75V19.125H13.125C13.3123 19.125 13.4897 19.0411 13.6083 18.8962C13.727 18.7514 13.7746 18.5611 13.7378 18.3774L12.4878 12.1274C12.4295 11.8353 12.173 11.625 11.875 11.625H9.37503C9.07709 11.625 8.82059 11.8353 8.76216 12.1274L7.51216 18.3774C7.47541 18.5611 7.52297 18.7514 7.64166 18.8962C7.76034 19.0411 7.93778 19.125 8.12503 19.125H10V19.75C10 20.1356 10.1172 20.4942 10.3175 20.7926C9.38166 21.3331 8.75003 22.3438 8.75003 23.5V24.125C8.75003 25.5035 7.62853 26.625 6.25003 26.625C4.86916 26.625 3.75003 25.5059 3.75003 24.125V22.875H5.62503C5.81228 22.875 5.98966 22.7911 6.10834 22.6462C6.22703 22.5014 6.27459 22.3111 6.23784 22.1274L4.98784 15.8774C4.92947 15.5853 4.67297 15.375 4.37503 15.375H1.87503C1.57709 15.375 1.32059 15.5853 1.26215 15.8774ZM28.1374 16.625H29.6127L30.6127 21.625H27.1374L28.1374 16.625ZM20.6374 12.875H22.1127L23.1127 17.875H19.6374L20.6374 12.875ZM9.88741 12.875H11.3627L12.3627 17.875H8.88741L9.88741 12.875ZM16 25.375C15.3108 25.375 14.75 24.8143 14.75 24.125C14.75 23.4357 15.3108 22.875 16 22.875C16.6893 22.875 17.25 23.4357 17.25 24.125C17.25 24.8143 16.6893 25.375 16 25.375ZM11.625 1.875V1.25H20.375V1.875C20.375 2.90887 19.5339 3.75 18.5 3.75H13.5C12.4662 3.75 11.625 2.90887 11.625 1.875ZM14.75 4.99937H17.25C17.25 5.68862 16.6893 6.25 16 6.25C15.3108 6.25 14.75 5.68862 14.75 4.99937ZM16 11.625C16.3447 11.625 16.625 11.9054 16.625 12.25C16.625 12.5946 16.3447 12.875 16 12.875C15.6554 12.875 15.375 12.5946 15.375 12.25C15.375 11.9054 15.6554 11.625 16 11.625ZM3.86265 16.625L4.86266 21.625H1.3874L2.3874 16.625H3.86265Z" fill="black"/>
</svg>
