<svg width="31" height="33" viewBox="0 0 31 33" fill="none" xmlns="http://www.w3.org/2000/svg">
<path d="M22.1623 20.7925C23.9419 19.0314 24.9219 16.6899 24.9219 14.1993C24.9219 11.7087 23.9419 9.36714 22.1624 7.60607C20.3828 5.84495 18.0167 4.87505 15.5 4.87505C12.9833 4.87505 10.6172 5.84495 8.83771 7.60601C7.05812 9.36714 6.07806 11.7087 6.07806 14.1993C6.07806 16.6899 7.05812 19.0314 8.83765 20.7925C10.6172 22.5536 12.9833 23.5235 15.5 23.5235C18.0167 23.5235 20.3828 22.5536 22.1623 20.7925ZM7.30169 14.1993C7.30169 12.0322 8.15443 9.99471 9.70294 8.46233C11.2514 6.92989 13.3102 6.08598 15.5 6.08598C17.6898 6.08598 19.7486 6.92989 21.2971 8.46233C22.8456 9.99471 23.6983 12.0322 23.6983 14.1993C23.6983 16.3664 22.8456 18.4038 21.2971 19.9362C19.7486 21.4686 17.6898 22.3125 15.5 22.3125C13.3102 22.3125 11.2514 21.4686 9.70294 19.9362C8.15443 18.4038 7.30169 16.3664 7.30169 14.1993Z" fill="black"/>
<path d="M15.5075 8.8916C15.8454 8.8916 16.1193 8.62054 16.1193 8.28614V7.72517C16.1193 7.39077 15.8454 7.1197 15.5075 7.1197C15.1696 7.1197 14.8956 7.39077 14.8956 7.72517V8.28614C14.8956 8.62054 15.1696 8.8916 15.5075 8.8916Z" fill="black"/>
<path d="M21.4751 14.8121H22.0419C22.3799 14.8121 22.6538 14.5411 22.6538 14.2067C22.6538 13.8723 22.3799 13.6012 22.0419 13.6012H21.4751C21.1372 13.6012 20.8633 13.8723 20.8633 14.2067C20.8633 14.5411 21.1372 14.8121 21.4751 14.8121Z" fill="black"/>
<path d="M9.5249 13.5864H8.95805C8.62015 13.5864 8.34624 13.8575 8.34624 14.1919C8.34624 14.5263 8.62015 14.7973 8.95805 14.7973H9.5249C9.8628 14.7973 10.1367 14.5263 10.1367 14.1919C10.1367 13.8575 9.8628 13.5864 9.5249 13.5864Z" fill="black"/>
<path d="M16.1118 20.6567V15.9187C16.3643 15.8311 16.6012 15.6878 16.8027 15.4884C17.0041 15.289 17.149 15.0546 17.2375 14.8047H19.1097C19.4476 14.8047 19.7215 14.5336 19.7215 14.1992C19.7215 13.8648 19.4476 13.5937 19.1097 13.5937H17.2374C17.149 13.3439 17.0041 13.1094 16.8026 12.91C16.0843 12.1993 14.9156 12.1993 14.1973 12.91C13.4791 13.6209 13.4791 14.7775 14.1973 15.4883C14.3988 15.6877 14.6357 15.8311 14.8882 15.9186V20.6566C14.8882 20.991 15.1621 21.2621 15.5 21.2621C15.8379 21.2621 16.1118 20.9911 16.1118 20.6567ZM15.0626 13.7664C15.1794 13.6508 15.3347 13.5871 15.5 13.5871C15.6653 13.5871 15.8206 13.6508 15.9374 13.7664C16.0542 13.882 16.1185 14.0357 16.1185 14.1993C16.1185 14.3628 16.0542 14.5165 15.9374 14.6321C15.8206 14.7478 15.6653 14.8114 15.5 14.8114C15.3347 14.8114 15.1794 14.7477 15.0626 14.6321C14.9458 14.5165 14.8815 14.3628 14.8815 14.1993C14.8815 14.0357 14.9458 13.882 15.0626 13.7664Z" fill="black"/>
<path d="M29.3882 27.3984H3.38608V26.1875V25.8359C3.38608 25.7367 3.38608 25.9269 3.38608 25.5925C3.38608 25.2581 3.38608 25.3831 3.38608 25.284V24.9766V14.1992C3.38608 7.58883 8.82033 2.21094 15.5 2.21094C22.1797 2.21094 27.6139 7.58883 27.6139 14.1992V25.3678C27.6139 25.7022 27.8878 25.9733 28.2257 25.9733C28.5636 25.9733 28.8376 25.7022 28.8376 25.3678V14.1992C28.8376 10.6736 27.4502 7.35894 24.9311 4.86598C22.4119 2.37302 19.0626 1 15.5 1C11.9374 1 8.58803 2.37296 6.06894 4.86598C3.54986 7.359 2.16245 10.6736 2.16245 14.1992V27.3984H1.61181C1.27391 27.3984 1 27.6695 1 28.0039V31.3945C1 31.7289 1.27391 32 1.61181 32H29.3882C29.7261 32 30 31.7289 30 31.3945V28.0039C30 27.6695 29.7261 27.3984 29.3882 27.3984ZM28.7764 30.7891H2.22363V28.6094H28.7764V30.7891Z" fill="black"/>
<path d="M22.1623 20.7925C23.9419 19.0314 24.9219 16.6899 24.9219 14.1993C24.9219 11.7087 23.9419 9.36714 22.1624 7.60607C20.3828 5.84495 18.0167 4.87505 15.5 4.87505C12.9833 4.87505 10.6172 5.84495 8.83771 7.60601C7.05812 9.36714 6.07806 11.7087 6.07806 14.1993C6.07806 16.6899 7.05812 19.0314 8.83765 20.7925C10.6172 22.5536 12.9833 23.5235 15.5 23.5235C18.0167 23.5235 20.3828 22.5536 22.1623 20.7925ZM7.30169 14.1993C7.30169 12.0322 8.15443 9.99471 9.70294 8.46233C11.2514 6.92989 13.3102 6.08598 15.5 6.08598C17.6898 6.08598 19.7486 6.92989 21.2971 8.46233C22.8456 9.99471 23.6983 12.0322 23.6983 14.1993C23.6983 16.3664 22.8456 18.4038 21.2971 19.9362C19.7486 21.4686 17.6898 22.3125 15.5 22.3125C13.3102 22.3125 11.2514 21.4686 9.70294 19.9362C8.15443 18.4038 7.30169 16.3664 7.30169 14.1993Z" stroke="black" stroke-width="0.25"/>
<path d="M15.5075 8.8916C15.8454 8.8916 16.1193 8.62054 16.1193 8.28614V7.72517C16.1193 7.39077 15.8454 7.1197 15.5075 7.1197C15.1696 7.1197 14.8956 7.39077 14.8956 7.72517V8.28614C14.8956 8.62054 15.1696 8.8916 15.5075 8.8916Z" stroke="black" stroke-width="0.25"/>
<path d="M21.4751 14.8121H22.0419C22.3799 14.8121 22.6538 14.5411 22.6538 14.2067C22.6538 13.8723 22.3799 13.6012 22.0419 13.6012H21.4751C21.1372 13.6012 20.8633 13.8723 20.8633 14.2067C20.8633 14.5411 21.1372 14.8121 21.4751 14.8121Z" stroke="black" stroke-width="0.25"/>
<path d="M9.5249 13.5864H8.95805C8.62015 13.5864 8.34624 13.8575 8.34624 14.1919C8.34624 14.5263 8.62015 14.7973 8.95805 14.7973H9.5249C9.8628 14.7973 10.1367 14.5263 10.1367 14.1919C10.1367 13.8575 9.8628 13.5864 9.5249 13.5864Z" stroke="black" stroke-width="0.25"/>
<path d="M16.1118 20.6567V15.9187C16.3643 15.8311 16.6012 15.6878 16.8027 15.4884C17.0041 15.289 17.149 15.0546 17.2375 14.8047H19.1097C19.4476 14.8047 19.7215 14.5336 19.7215 14.1992C19.7215 13.8648 19.4476 13.5937 19.1097 13.5937H17.2374C17.149 13.3439 17.0041 13.1094 16.8026 12.91C16.0843 12.1993 14.9156 12.1993 14.1973 12.91C13.4791 13.6209 13.4791 14.7775 14.1973 15.4883C14.3988 15.6877 14.6357 15.8311 14.8882 15.9186V20.6566C14.8882 20.991 15.1621 21.2621 15.5 21.2621C15.8379 21.2621 16.1118 20.9911 16.1118 20.6567ZM15.0626 13.7664C15.1794 13.6508 15.3347 13.5871 15.5 13.5871C15.6653 13.5871 15.8206 13.6508 15.9374 13.7664C16.0542 13.882 16.1185 14.0357 16.1185 14.1993C16.1185 14.3628 16.0542 14.5165 15.9374 14.6321C15.8206 14.7478 15.6653 14.8114 15.5 14.8114C15.3347 14.8114 15.1794 14.7477 15.0626 14.6321C14.9458 14.5165 14.8815 14.3628 14.8815 14.1993C14.8815 14.0357 14.9458 13.882 15.0626 13.7664Z" stroke="black" stroke-width="0.25"/>
<path d="M29.3882 27.3984H3.38608V26.1875V25.8359C3.38608 25.7367 3.38608 25.9269 3.38608 25.5925C3.38608 25.2581 3.38608 25.3831 3.38608 25.284V24.9766V14.1992C3.38608 7.58883 8.82033 2.21094 15.5 2.21094C22.1797 2.21094 27.6139 7.58883 27.6139 14.1992V25.3678C27.6139 25.7022 27.8878 25.9733 28.2257 25.9733C28.5636 25.9733 28.8376 25.7022 28.8376 25.3678V14.1992C28.8376 10.6736 27.4502 7.35894 24.9311 4.86598C22.4119 2.37302 19.0626 1 15.5 1C11.9374 1 8.58803 2.37296 6.06894 4.86598C3.54986 7.359 2.16245 10.6736 2.16245 14.1992V27.3984H1.61181C1.27391 27.3984 1 27.6695 1 28.0039V31.3945C1 31.7289 1.27391 32 1.61181 32H29.3882C29.7261 32 30 31.7289 30 31.3945V28.0039C30 27.6695 29.7261 27.3984 29.3882 27.3984ZM28.7764 30.7891H2.22363V28.6094H28.7764V30.7891Z" stroke="black" stroke-width="0.25"/>
</svg>
