<svg width="18" height="29" viewBox="0 0 18 29" fill="none" xmlns="http://www.w3.org/2000/svg">
<path d="M17.9024 11.6192C17.2966 10.463 15.2908 6.32607 14.9211 1.63375C14.8488 0.717652 14.0306 0 13.0581 0H4.94192C3.96941 0 3.15118 0.717652 3.07893 1.634C2.70925 6.32607 0.703627 10.463 0.0976273 11.6192C-0.0465953 11.8943 -0.0301883 12.2141 0.141291 12.4744C0.31277 12.735 0.609419 12.8905 0.934383 12.8905H8.32255V17.0926C8.32255 18.2179 8.31502 18.6939 8.31502 19.7051C8.31502 20.7166 8.31502 20.8205 8.32255 21.3798V25.0303H5.86097C4.27823 25.0303 2.9879 26.234 2.96488 27.722H1.48296C1.10877 27.722 0.805509 28.0083 0.805509 28.361C0.805509 28.7139 1.10877 29 1.48296 29H16.517C16.8912 29 17.1945 28.7139 17.1945 28.361C17.1945 28.0083 16.8912 27.722 16.517 27.722H15.0351C15.0121 26.234 13.7218 25.0303 12.139 25.0303H9.67745V21.3795C9.67745 20.4487 9.67745 20.2112 9.67745 19.2C9.67745 18.1885 9.67745 17.9857 9.67745 17.0924V12.8903H17.0656C17.3906 12.8903 17.6872 12.7348 17.8587 12.4744C18.0302 12.2141 18.0466 11.8943 17.9024 11.6192ZM13.68 27.722H4.32004C4.3428 26.9387 5.02528 26.3081 5.86097 26.3081H12.139C12.9747 26.3081 13.6572 26.9387 13.68 27.722ZM4.43013 1.72886C4.44998 1.47599 4.67491 1.27804 4.94192 1.27804H6.62972C6.45189 4.83935 4.90805 10.0599 4.42722 11.6125H1.60178C2.42927 9.91833 4.08929 6.05399 4.43013 1.72886ZM13.5725 11.6125C13.3526 10.9038 12.9109 9.43157 12.482 7.7117C12.3962 7.36823 12.0313 7.15555 11.6675 7.23618C11.3033 7.31706 11.0776 7.66103 11.1633 8.00451C11.5359 9.49872 11.9183 10.8105 12.162 11.6125H5.83928C6.42993 9.6762 7.82425 4.78543 7.98594 1.27804H10.0141C10.0358 1.74658 10.0805 2.25705 10.1472 2.80296C10.19 3.15368 10.5269 3.40479 10.8979 3.3646C11.2695 3.32416 11.5362 3.00715 11.4931 2.65644C11.4325 2.16169 11.3914 1.7004 11.3703 1.27804H13.0583C13.3251 1.27804 13.55 1.47599 13.5699 1.72861C13.9107 6.05399 15.5707 9.91833 16.3982 11.6125H13.5725Z" fill="black"/>
</svg>
