<svg width="21" height="31" viewBox="0 0 21 31" fill="none" xmlns="http://www.w3.org/2000/svg">
<path d="M0.233876 15.6776C0.23293 15.6812 0.231984 15.685 0.231274 15.6885C0.230801 15.6902 0.230328 15.6916 0.230092 15.6932C0.121533 16.1213 0.050343 16.5617 0.0191235 17.0026C-0.0444981 17.8949 0.050816 18.7823 0.302228 19.6401C0.465893 20.1992 0.694836 20.7387 0.98267 21.2437L4.3241 27.4095C3.50861 27.5879 2.89605 28.3154 2.89605 29.1836C2.89605 30.1852 3.71083 31 4.71245 31H15.6109C16.6125 31 17.4273 30.1852 17.4273 29.1836C17.4273 28.3154 16.8147 27.5879 15.9992 27.4095L19.3404 21.2437C19.607 20.7763 19.8239 20.2775 19.9847 19.7612C19.9854 19.7593 19.9859 19.7574 19.9866 19.7555C19.9868 19.7544 19.9873 19.7532 19.9875 19.752C20.2638 18.8596 20.3704 17.9349 20.3042 17.0023C20.273 16.5709 20.2049 16.1412 20.1015 15.7254C20.1008 15.7226 20.1001 15.7197 20.0994 15.7166C19.374 12.8102 17.0065 10.6473 14.0956 10.156L15.4948 3.63281H15.6109C16.6144 3.63281 17.4273 2.81992 17.4273 1.81641C17.4273 0.814781 16.6125 0 15.6109 0H4.71245C3.70894 0 2.89605 0.812889 2.89605 1.81641C2.89605 2.81803 3.71083 3.63281 4.71245 3.63281H4.82858L6.22802 10.1563C3.33407 10.6454 0.970608 12.7927 0.233876 15.6776ZM19.0841 16.9571C19.0881 17.0009 19.0931 17.0447 19.0964 17.0886C19.1479 17.8176 19.0722 18.5411 18.874 19.2418C18.8714 19.2442 18.8686 19.2468 18.866 19.2492C17.9973 20.0415 16.9179 20.0415 16.0492 19.2492C14.7185 18.0359 12.9307 18.0359 11.6004 19.2492C10.7317 20.0415 9.65223 20.0415 8.78352 19.2492C7.45315 18.0359 5.66536 18.0359 4.33475 19.2492C3.43198 20.0725 2.30359 20.0334 1.42731 19.1621C1.24543 18.4857 1.17685 17.7892 1.22699 17.0886C1.23101 17.0333 1.23716 16.978 1.2426 16.9226C2.48996 17.7033 3.99322 17.5666 5.15071 16.5111C6.01942 15.7188 7.09885 15.7188 7.96756 16.5111C8.63263 17.1177 9.41217 17.4209 10.1919 17.4209C10.9715 17.4209 11.751 17.1177 12.4163 16.5111C13.285 15.7188 14.3645 15.7188 15.2332 16.5111C16.3727 17.5503 17.8478 17.6986 19.0841 16.9571ZM16.2164 29.1836C16.2164 29.5175 15.9448 29.7891 15.6109 29.7891H4.71245C4.3785 29.7891 4.10698 29.5175 4.10698 29.1836C4.10698 28.8496 4.3785 28.5781 4.71245 28.5781H7.7398C8.07423 28.5781 8.34527 28.3071 8.34527 27.9727C8.34527 27.6382 8.07423 27.3672 7.7398 27.3672H5.67837L2.2104 20.9674C2.44715 21.0251 2.68744 21.0549 2.92774 21.0549C3.70421 21.0549 4.48233 20.7534 5.15071 20.1439C6.01942 19.3516 7.09885 19.3516 7.96756 20.1439C9.29793 21.3572 11.0857 21.3572 12.4163 20.1439C13.285 19.3516 14.3645 19.3516 15.2332 20.1439C15.8983 20.7505 16.6773 21.0538 17.4571 21.0538C17.6737 21.0538 17.8904 21.0294 18.1047 20.9826L14.6447 27.3672H12.5835C12.2491 27.3672 11.9781 27.6382 11.9781 27.9727C11.9781 28.3071 12.2491 28.5781 12.5835 28.5781H15.6109C15.9448 28.5781 16.2164 28.8496 16.2164 29.1836ZM4.10698 1.81641C4.10698 1.48198 4.37826 1.21094 4.71245 1.21094H15.6109C15.9448 1.21094 16.2164 1.48245 16.2164 1.81641C16.2164 2.15083 15.9451 2.42188 15.6109 2.42188C14.8134 2.42188 5.40993 2.42188 4.71245 2.42188C4.3785 2.42188 4.10698 2.15036 4.10698 1.81641ZM6.06695 3.63281H14.2562L12.7725 10.5491C12.7359 10.7201 12.7749 10.8987 12.8797 11.0387C12.9842 11.1787 13.1443 11.2667 13.3186 11.2799C15.8931 11.4755 18.0607 13.2153 18.8232 15.6537C17.9621 16.4077 16.9037 16.3957 16.0492 15.6164C14.7185 14.4031 12.9307 14.4031 11.6004 15.6164C10.7317 16.4084 9.65223 16.4084 8.78352 15.6164C7.45291 14.4031 5.66512 14.4031 4.33475 15.6164C3.4658 16.4087 2.38636 16.4084 1.51742 15.6159C1.51624 15.6147 1.51482 15.6135 1.5134 15.6123C2.28798 13.1969 4.44922 11.4741 7.00448 11.2799C7.17879 11.2667 7.33891 11.1787 7.44369 11.0387C7.54846 10.8987 7.58725 10.7201 7.55059 10.5493L6.06695 3.63281Z" fill="black"/>
</svg>
