<svg width="20" height="32" viewBox="0 0 20 32" fill="none" xmlns="http://www.w3.org/2000/svg">
<path d="M14.1009 9.50004C13.6992 9.50004 13.3735 9.83029 13.3735 10.2377C13.3735 10.5834 13.0962 10.8647 12.7553 10.8647C12.4144 10.8647 12.137 10.5834 12.137 10.2377C12.137 9.83029 11.8113 9.50004 11.4097 9.50004C11.0081 9.50004 10.6824 9.83029 10.6824 10.2377C10.6824 10.5834 10.405 10.8647 10.0641 10.8647C9.72319 10.8647 9.44586 10.5834 9.44586 10.2377C9.44586 9.83029 9.12016 9.50004 8.71853 9.50004C8.3169 9.50004 7.99119 9.83029 7.99119 10.2377C7.99119 10.5834 7.71387 10.8647 7.37294 10.8647C7.03201 10.8647 6.75469 10.5834 6.75469 10.2377C6.75469 9.83029 6.42898 9.50004 6.02735 9.50004C5.62572 9.50004 5.30002 9.83029 5.30002 10.2377C5.30002 11.3969 6.22992 12.3399 7.37294 12.3399C7.88599 12.3399 8.35622 12.1499 8.71853 11.8356C9.08084 12.1499 9.55106 12.3399 10.0641 12.3399C10.5772 12.3399 11.0474 12.1499 11.4097 11.8356C11.772 12.1499 12.2422 12.3399 12.7553 12.3399C13.8983 12.3399 14.8282 11.3969 14.8282 10.2377C14.8282 9.83029 14.5025 9.50004 14.1009 9.50004Z" fill="black"/>
<path d="M20 10.1421C20 7.38758 18.9296 4.81045 16.9861 2.88556C15.0434 0.961368 12.48 -0.0621984 9.75784 0.00292689C4.28773 0.134365 -0.0890326 4.75876 0.00137581 10.3112C0.0405713 12.744 0.943299 15.0829 2.54298 16.8969C3.63047 18.1303 4.44618 19.5698 4.93378 21.1008C4.66785 21.2106 4.4802 21.4749 4.4802 21.784C4.4802 22.1913 4.8059 22.5216 5.20753 22.5216H5.28722C5.40388 23.1695 5.46354 23.827 5.46354 24.4837V26.1817C5.46354 28.4674 7.11628 30.3684 9.27339 30.7223V31.2624C9.27339 31.6698 9.59909 32 10.0007 32C10.4023 32 10.7281 31.6698 10.7281 31.2624V30.7223C12.8847 30.3682 14.537 28.4673 14.537 26.1817V24.4822C14.537 23.8264 14.5951 23.1693 14.7086 22.5216H14.7523C15.1539 22.5216 15.4796 22.1913 15.4796 21.784C15.4796 21.4847 15.3036 21.2276 15.0511 21.112C15.5309 19.5745 16.3348 18.1502 17.4066 16.9534C19.079 15.0857 20 12.6667 20 10.1421ZM13.0824 26.1817C13.0824 27.905 11.6999 29.3071 10.0007 29.3071C8.30102 29.3071 6.9182 27.905 6.9182 26.1817V25.3932H13.0823V26.1817H13.0824ZM13.0961 23.918H6.90409C6.88295 23.4506 6.83556 22.9842 6.76241 22.5216H13.2343C13.1629 22.9844 13.1168 23.4508 13.0961 23.918ZM9.09583 21.0464V19.5298C9.09583 19.0238 9.50178 18.6122 10.0007 18.6122C10.2421 18.6122 10.4692 18.7076 10.6393 18.8802C10.8105 19.0542 10.9047 19.2849 10.9047 19.5298V21.0464H9.09583ZM13.5524 21.0464H12.3593V19.5298C12.3593 18.9329 12.1449 18.369 11.7527 17.9279L13.5825 14.4607C13.7721 14.1015 13.6386 13.6546 13.2844 13.4623C12.9305 13.2702 12.4896 13.4054 12.3 13.7645L10.4928 17.1893C10.3328 17.1549 10.1682 17.1369 10.0007 17.1369C9.83802 17.1369 9.67908 17.1537 9.52563 17.1856L7.72023 13.7645C7.53079 13.4054 7.0899 13.27 6.73579 13.4623C6.38167 13.6545 6.24818 14.1016 6.43775 14.4607L8.2609 17.9154C7.87634 18.3413 7.64129 18.9081 7.64129 19.5298V21.0463H6.43794C5.9075 19.1712 4.94407 17.4068 3.62751 15.9135C2.26066 14.3636 1.48945 12.3655 1.45605 10.287C1.3787 5.54189 5.11842 1.59006 9.79248 1.47775C12.1166 1.42162 14.3097 2.29681 15.9699 3.94094C17.6308 5.58595 18.5455 7.78815 18.5455 10.1421C18.5455 12.2993 17.7586 14.3661 16.3299 15.9617C15.0294 17.4136 14.0774 19.1615 13.5524 21.0464Z" fill="black"/>
</svg>
