<?xml version="1.0" encoding="UTF-8" standalone="no"?>
<!-- Created with Inkscape (http://www.inkscape.org/) -->

<svg
   xmlns:dc="http://purl.org/dc/elements/1.1/"
   xmlns:cc="http://creativecommons.org/ns#"
   xmlns:rdf="http://www.w3.org/1999/02/22-rdf-syntax-ns#"
   xmlns:svg="http://www.w3.org/2000/svg"
   xmlns="http://www.w3.org/2000/svg"
   xmlns:sodipodi="http://sodipodi.sourceforge.net/DTD/sodipodi-0.dtd"
   xmlns:inkscape="http://www.inkscape.org/namespaces/inkscape"
   version="1.1"
   id="svg20"
   width="220"
   height="210"
   viewBox="0 0 220 210"
   sodipodi:docname="icon-liked.svg"
   inkscape:version="0.92.4 (5da689c313, 2019-01-14)">
  <metadata
     id="metadata26">
    <rdf:RDF>
      <cc:Work
         rdf:about="">
        <dc:format>image/svg+xml</dc:format>
        <dc:type
           rdf:resource="http://purl.org/dc/dcmitype/StillImage" />
        <dc:title></dc:title>
      </cc:Work>
    </rdf:RDF>
  </metadata>
  <defs
     id="defs24" />
  <sodipodi:namedview
     pagecolor="#ffffff"
     bordercolor="#666666"
     borderopacity="1"
     objecttolerance="10"
     gridtolerance="10"
     guidetolerance="10"
     inkscape:pageopacity="0"
     inkscape:pageshadow="2"
     inkscape:window-width="1920"
     inkscape:window-height="1017"
     id="namedview22"
     showgrid="false"
     inkscape:zoom="3.1786133"
     inkscape:cx="143.01069"
     inkscape:cy="95.891484"
     inkscape:window-x="1358"
     inkscape:window-y="-8"
     inkscape:window-maximized="1"
     inkscape:current-layer="svg20" />
  <path
     style="fill:#c7a76b"
     d="m 100.36858,207.34948 c 0,0 -2.014589,-4.7969 -12.249999,-14.37782 -6.7375,-6.30668 -15.625,-14.17369 -19.75,-17.48226 -4.125,-3.30857 -12.92038,-11.35105 -19.54529,-17.87218 C 29.136151,138.23847 14.982471,120.0625 9.3637414,106.94378 6.3044414,99.800885 7.7121496,98.720401 5.3159596,98.444201 L 4.3721518,95.298175 0.36858139,70.760625 1.3123892,50.000124 3.1185814,43.077047 c 0,0 3.35652,-1.537342 6.9201396,-8.710854 4.77192,-9.605785 14.40667,-20.188697 23.14461,-25.4222939 3.82588,-2.291513 5.4717,-3.953658 5.875,-5.933274 L 45.59603,1.5190355 60.927161,0.26062508 74.685269,0.57522767 80.979148,3.9544329 c 0,0 3.090513,2.4374572 8.685323,5.3779782 3.73775,1.9644819 8.69702,5.6425009 11.020619,8.1733749 7.0979,7.731084 12.03406,7.596395 20.11417,-0.548836 2.83513,-2.857979 7.38555,-6.546325 10.11205,-8.1963249 3.73727,-2.26169 5.03514,-3.676784 5.27369,-5.75 l 7.55228,-2.43539743 15.07272,-0.31460259 16.96034,0.94380782 5.94517,3.3792052 c 0.42398,1.953213 2.36443,2.33595 6.69721,5.1769867 9.36854,6.1430242 19.38806,17.2381392 23.7489,26.2983252 2.80287,5.823324 3.47268,6.724425 4.06934,8.335829 l 2.56461,6.926205 1.57301,19.49014 -1.25841,16.658717 -1.6643,8.205052 c -2.07303,0.5203 -3.06078,4.521567 -6.03339,10.971267 -8.03882,17.44187 -23.80481,36.58948 -50.09028,60.83408 -5.19949,4.79579 -10.92705,9.80186 -12.72791,11.12458 -1.80085,1.32273 -8.88835,7.67639 -15.75,14.11925 -10.42797,9.79152 -12.47571,12.19211 -12.47571,14.62541 l -5.03364,1.65273 -4.96636,1.25841 -5.28096,-0.62921 z m 16.39492,-25.6109 c 3.59157,-1.87303 6.8945,-4.97119 37.795,-35.45184 14.52861,-14.33121 27.03433,-27.59292 30.17581,-32 5.13687,-7.20636 11.15795,-19.446259 14.27859,-29.026119 2.04664,-6.28284 1.99422,-21.92509 -0.10054,-29.999996 -1.78005,-6.861758 -7.26907,-17.887946 -10.88858,-21.872646 -3.43804,-3.784916 -12.77636,-10.400295 -16.62369,-11.776412 -5.01388,-1.793374 -20.24771,-1.705275 -24.67047,0.142673 -6.44524,2.692993 -15.00106,11.199699 -22.46172,22.332774 -8.12786,12.128684 -9.1714,13.173611 -13.15619,13.173611 -4.45952,0 -6.37261,-1.531274 -10.31324,-8.254939 -5.507119,-9.39646 -12.812729,-17.225095 -21.232569,-22.752634 -8.6423,-5.673585 -11.47682,-6.430033 -21.64823,-5.777271 -6.61278,0.424382 -7.997,0.915529 -14.89416,5.284705 -9.64538,6.110111 -10.32834,6.898179 -16.64196,19.20318 -4.54051,8.849267 -5.36259,11.363016 -6.19577,18.945469 -1.56587,14.250256 -0.0159,22.176826 6.85116,35.036206 8.47348,15.867639 14.77868,23.454799 40.56729,48.815279 36.395639,35.79143 36.029599,35.48768 42.764349,35.48768 1.925,0 4.80272,-0.67938 6.39492,-1.50972 z"
     id="path36"
     inkscape:connector-curvature="0"
     sodipodi:nodetypes="sssssccccssssccccccsssccccsssccccsscsscccscssssssssssssssscssc" />
</svg>
