<svg width="33" height="35" viewBox="0 0 33 35" fill="none" xmlns="http://www.w3.org/2000/svg">
<path d="M23.4688 10.2811C23.105 9.90951 22.515 9.90951 22.1512 10.2811L9.85377 22.8423C9.48994 23.2139 9.48994 23.8165 9.85377 24.1881C10.0357 24.3739 10.2741 24.4669 10.5125 24.4669C10.7509 24.4669 10.9894 24.374 11.1713 24.1881L23.4687 11.627C23.8327 11.2553 23.8327 10.6528 23.4688 10.2811Z" fill="black"/>
<path d="M12.9346 8.66983C11.051 8.66983 9.51846 10.2352 9.51846 12.1592C9.51846 14.0833 11.051 15.6486 12.9346 15.6486C14.8183 15.6486 16.3508 14.0833 16.3508 12.1592C16.3508 10.2352 14.8183 8.66983 12.9346 8.66983ZM12.9346 13.7453C12.0784 13.7453 11.3819 13.0338 11.3819 12.1592C11.3819 11.2846 12.0784 10.5731 12.9346 10.5731C13.7908 10.5731 14.4874 11.2846 14.4874 12.1592C14.4874 13.0338 13.7908 13.7453 12.9346 13.7453Z" fill="black"/>
<path d="M20.388 18.8207C18.5043 18.8207 16.9718 20.386 16.9718 22.3101C16.9718 24.2341 18.5043 25.7995 20.388 25.7995C22.2716 25.7995 23.8041 24.2341 23.8041 22.3101C23.8041 20.386 22.2716 18.8207 20.388 18.8207ZM20.388 23.8961C19.5318 23.8961 18.8351 23.1846 18.8351 22.3101C18.8351 21.4355 19.5317 20.724 20.388 20.724C21.2442 20.724 21.9407 21.4355 21.9407 22.3101C21.9407 23.1846 21.2442 23.8961 20.388 23.8961Z" fill="black"/>
<path d="M30.5054 17.9274C30.3754 17.6558 30.3754 17.3442 30.5054 17.0726L31.7103 14.5548C32.3812 13.1529 31.8496 11.4819 30.5002 10.7506L28.0765 9.43707C27.815 9.2954 27.6358 9.04326 27.5846 8.74556L27.1106 5.98513C26.8466 4.44819 25.4548 3.41541 23.9425 3.63397L21.2259 4.02648C20.9326 4.06876 20.6427 3.97247 20.43 3.76229L18.458 1.81377C17.36 0.728776 15.64 0.728712 14.542 1.81377L12.57 3.76249C12.3573 3.97273 12.0673 4.06883 11.7741 4.02668L9.05752 3.63416C7.5447 3.41547 6.15335 4.44839 5.88941 5.98532L5.4154 8.74562C5.36423 9.04339 5.18496 9.29546 4.92354 9.4372L2.49988 10.7507C1.15043 11.482 0.618878 13.1531 1.28975 14.555L2.49464 17.0727C2.62463 17.3444 2.62463 17.656 2.49464 17.9276L1.28969 20.4453C0.618815 21.8472 1.15037 23.5182 2.49982 24.2495L4.92348 25.563C5.18496 25.7047 5.36423 25.9569 5.4154 26.2546L5.88941 29.015C6.12969 30.4141 7.30423 31.3953 8.65412 31.3952C8.78707 31.3952 8.92198 31.3857 9.05758 31.3661L11.7742 30.9736C12.0672 30.9311 12.3573 31.0276 12.5701 31.2378L14.542 33.1863C15.0911 33.7288 15.7954 34.0001 16.5 34C17.2044 33.9999 17.9091 33.7287 18.458 33.1863L20.43 31.2378C20.6427 31.0276 20.9328 30.9315 21.2259 30.9736L23.9425 31.3661C25.4555 31.5847 26.8466 30.5519 27.1106 29.0149L27.5847 26.2546C27.6358 25.9569 27.8151 25.7048 28.0765 25.563L30.5002 24.2495C31.8496 23.5182 32.3812 21.8472 31.7103 20.4453L30.5054 17.9274ZM29.6268 22.5681L27.2032 23.8817C26.4304 24.3006 25.9005 25.0455 25.7493 25.9257L25.2753 28.686C25.1861 29.206 24.7154 29.5553 24.2035 29.4815L21.4868 29.089C20.6205 28.9636 19.7632 29.2484 19.1344 29.8697L17.1624 31.8182C16.791 32.1851 16.209 32.1851 15.8375 31.8182L13.8656 29.8696C13.3342 29.3445 12.6394 29.06 11.9142 29.06C11.7813 29.06 11.6473 29.0695 11.5132 29.0889L8.79654 29.4814C8.28505 29.5553 7.81401 29.206 7.72466 28.686L7.25059 25.9255C7.09941 25.0454 6.5695 24.3004 5.79671 23.8816L3.37305 22.5681C2.91646 22.3206 2.73663 21.7553 2.9636 21.281L4.16855 18.7632C4.5527 17.9604 4.5527 17.0396 4.16855 16.2368L2.9636 13.719C2.73663 13.2447 2.91646 12.6793 3.37305 12.4319L5.79671 11.1184C6.56943 10.6995 7.09941 9.95455 7.25053 9.07439L7.72454 6.31403C7.81389 5.79402 8.28448 5.44469 8.79641 5.51856L11.513 5.91107C12.3791 6.0363 13.2367 5.75162 13.8655 5.13036L15.8375 3.18183C16.2089 2.81484 16.7908 2.81484 17.1624 3.18183L19.1343 5.13036C19.7631 5.75168 20.6205 6.0363 21.4867 5.91107L24.2033 5.51856C24.7149 5.44463 25.1859 5.79402 25.2752 6.31403L25.7492 9.07446C25.9004 9.95462 26.4303 10.6996 27.2031 11.1184L29.6268 12.4319C30.0833 12.6793 30.2632 13.2447 30.0362 13.719L28.8313 16.2367C28.4471 17.0395 28.4471 17.9604 28.8313 18.7631L30.0362 21.2809C30.2632 21.7553 30.0834 22.3207 29.6268 22.5681Z" fill="black"/>
<path d="M23.4688 10.2811C23.105 9.90951 22.515 9.90951 22.1512 10.2811L9.85377 22.8423C9.48994 23.2139 9.48994 23.8165 9.85377 24.1881C10.0357 24.3739 10.2741 24.4669 10.5125 24.4669C10.7509 24.4669 10.9894 24.374 11.1713 24.1881L23.4687 11.627C23.8327 11.2553 23.8327 10.6528 23.4688 10.2811Z" stroke="white" stroke-width="0.5"/>
<path d="M12.9346 8.66983C11.051 8.66983 9.51846 10.2352 9.51846 12.1592C9.51846 14.0833 11.051 15.6486 12.9346 15.6486C14.8183 15.6486 16.3508 14.0833 16.3508 12.1592C16.3508 10.2352 14.8183 8.66983 12.9346 8.66983ZM12.9346 13.7453C12.0784 13.7453 11.3819 13.0338 11.3819 12.1592C11.3819 11.2846 12.0784 10.5731 12.9346 10.5731C13.7908 10.5731 14.4874 11.2846 14.4874 12.1592C14.4874 13.0338 13.7908 13.7453 12.9346 13.7453Z" stroke="white" stroke-width="0.5"/>
<path d="M20.388 18.8207C18.5043 18.8207 16.9718 20.386 16.9718 22.3101C16.9718 24.2341 18.5043 25.7995 20.388 25.7995C22.2716 25.7995 23.8041 24.2341 23.8041 22.3101C23.8041 20.386 22.2716 18.8207 20.388 18.8207ZM20.388 23.8961C19.5318 23.8961 18.8351 23.1846 18.8351 22.3101C18.8351 21.4355 19.5317 20.724 20.388 20.724C21.2442 20.724 21.9407 21.4355 21.9407 22.3101C21.9407 23.1846 21.2442 23.8961 20.388 23.8961Z" stroke="white" stroke-width="0.5"/>
<path d="M30.5054 17.9274C30.3754 17.6558 30.3754 17.3442 30.5054 17.0726L31.7103 14.5548C32.3812 13.1529 31.8496 11.4819 30.5002 10.7506L28.0765 9.43707C27.815 9.2954 27.6358 9.04326 27.5846 8.74556L27.1106 5.98513C26.8466 4.44819 25.4548 3.41541 23.9425 3.63397L21.2259 4.02648C20.9326 4.06876 20.6427 3.97247 20.43 3.76229L18.458 1.81377C17.36 0.728776 15.64 0.728712 14.542 1.81377L12.57 3.76249C12.3573 3.97273 12.0673 4.06883 11.7741 4.02668L9.05752 3.63416C7.5447 3.41547 6.15335 4.44839 5.88941 5.98532L5.4154 8.74562C5.36423 9.04339 5.18496 9.29546 4.92354 9.4372L2.49988 10.7507C1.15043 11.482 0.618878 13.1531 1.28975 14.555L2.49464 17.0727C2.62463 17.3444 2.62463 17.656 2.49464 17.9276L1.28969 20.4453C0.618815 21.8472 1.15037 23.5182 2.49982 24.2495L4.92348 25.563C5.18496 25.7047 5.36423 25.9569 5.4154 26.2546L5.88941 29.015C6.12969 30.4141 7.30423 31.3953 8.65412 31.3952C8.78707 31.3952 8.92198 31.3857 9.05758 31.3661L11.7742 30.9736C12.0672 30.9311 12.3573 31.0276 12.5701 31.2378L14.542 33.1863C15.0911 33.7288 15.7954 34.0001 16.5 34C17.2044 33.9999 17.9091 33.7287 18.458 33.1863L20.43 31.2378C20.6427 31.0276 20.9328 30.9315 21.2259 30.9736L23.9425 31.3661C25.4555 31.5847 26.8466 30.5519 27.1106 29.0149L27.5847 26.2546C27.6358 25.9569 27.8151 25.7048 28.0765 25.563L30.5002 24.2495C31.8496 23.5182 32.3812 21.8472 31.7103 20.4453L30.5054 17.9274ZM29.6268 22.5681L27.2032 23.8817C26.4304 24.3006 25.9005 25.0455 25.7493 25.9257L25.2753 28.686C25.1861 29.206 24.7154 29.5553 24.2035 29.4815L21.4868 29.089C20.6205 28.9636 19.7632 29.2484 19.1344 29.8697L17.1624 31.8182C16.791 32.1851 16.209 32.1851 15.8375 31.8182L13.8656 29.8696C13.3342 29.3445 12.6394 29.06 11.9142 29.06C11.7813 29.06 11.6473 29.0695 11.5132 29.0889L8.79654 29.4814C8.28505 29.5553 7.81401 29.206 7.72466 28.686L7.25059 25.9255C7.09941 25.0454 6.5695 24.3004 5.79671 23.8816L3.37305 22.5681C2.91646 22.3206 2.73663 21.7553 2.9636 21.281L4.16855 18.7632C4.5527 17.9604 4.5527 17.0396 4.16855 16.2368L2.9636 13.719C2.73663 13.2447 2.91646 12.6793 3.37305 12.4319L5.79671 11.1184C6.56943 10.6995 7.09941 9.95455 7.25053 9.07439L7.72454 6.31403C7.81389 5.79402 8.28448 5.44469 8.79641 5.51856L11.513 5.91107C12.3791 6.0363 13.2367 5.75162 13.8655 5.13036L15.8375 3.18183C16.2089 2.81484 16.7908 2.81484 17.1624 3.18183L19.1343 5.13036C19.7631 5.75168 20.6205 6.0363 21.4867 5.91107L24.2033 5.51856C24.7149 5.44463 25.1859 5.79402 25.2752 6.31403L25.7492 9.07446C25.9004 9.95462 26.4303 10.6996 27.2031 11.1184L29.6268 12.4319C30.0833 12.6793 30.2632 13.2447 30.0362 13.719L28.8313 16.2367C28.4471 17.0395 28.4471 17.9604 28.8313 18.7631L30.0362 21.2809C30.2632 21.7553 30.0834 22.3207 29.6268 22.5681Z" stroke="white" stroke-width="0.5"/>
</svg>
