<svg width="29" height="28" viewBox="0 0 29 28" fill="none" xmlns="http://www.w3.org/2000/svg">
<path d="M29 20.2816C28.7239 20.7091 28.5116 20.7804 28.0231 20.6165C27.202 20.3386 26.3808 20.0607 25.5596 19.7828C24.5969 19.4551 24.1651 18.8566 24.1509 17.8305C24.1439 17.2249 24.1439 16.6121 24.1509 16.0065C24.158 15.8212 24.0802 15.7642 23.9173 15.7215C22.0697 15.2797 20.9583 14.1183 20.5832 12.2444C20.5194 11.938 20.5195 11.6174 20.5195 11.311C20.5053 9.67936 20.5336 8.04058 20.4911 6.40892C20.4345 4.15024 18.8134 2.0982 16.6544 1.47831C13.8086 0.65179 10.9204 2.14807 9.96478 4.96251C9.79488 5.4684 9.70994 6.01703 9.68162 6.54429C9.63915 7.54894 9.66746 8.56071 9.66746 9.56536C9.66746 9.60811 9.67454 9.65798 9.68162 9.73636C10.2479 9.73636 10.8001 9.73636 11.3522 9.73636C11.7841 9.73636 12.1876 9.84324 12.5486 10.1069C13.0653 10.4916 13.2848 11.0331 13.2919 11.6602C13.2989 12.2587 13.306 12.8572 13.2919 13.4557C13.2848 13.7407 13.3485 13.9901 13.4759 14.2395C14.9483 17.1893 16.4137 20.1391 17.879 23.0889C17.9144 23.1673 17.9569 23.2457 17.9923 23.3169C18.3037 23.894 18.056 24.3358 17.3976 24.3429C16.2438 24.3572 15.097 24.3501 13.9431 24.3501C13.2636 24.3501 13.2636 24.3429 13.0724 24.9842C12.5344 26.8011 10.7859 28.0551 8.96665 27.9981C6.94208 27.934 5.34224 26.509 4.93874 24.6279C4.88919 24.3857 4.79716 24.3501 4.5848 24.3501C3.33183 24.3572 2.07178 24.3501 0.818809 24.3501C0.670151 24.3501 0.514416 24.3429 0.372837 24.3002C0.0118123 24.1791 -0.10145 23.78 0.0967598 23.3739C0.840047 21.8634 1.59749 20.3528 2.34078 18.8423C3.12654 17.2534 3.9123 15.6716 4.69806 14.0827C4.76885 13.9473 4.80424 13.7763 4.80424 13.6267C4.8184 12.9926 4.81132 12.3513 4.81132 11.7172C4.8184 10.5201 5.59 9.74349 6.78634 9.74349C7.32434 9.74349 7.86234 9.74349 8.43573 9.74349C8.43573 9.54398 8.43573 9.36586 8.43573 9.18773C8.44989 8.15458 8.40034 7.11431 8.49236 6.08116C8.71889 3.67998 9.93646 1.88444 12.046 0.780043C14.6652 -0.587987 17.5817 -0.124851 19.7266 1.92007C20.8238 2.96747 21.461 4.27137 21.6662 5.7819C21.7299 6.26641 21.7299 6.76517 21.7299 7.25681C21.737 8.65334 21.7299 10.0499 21.737 11.4464C21.7441 12.3442 22.0202 13.1422 22.6856 13.7692C23.082 14.1468 23.5422 14.4105 24.1368 14.5245C24.1368 14.3178 24.1368 14.1326 24.1368 13.9473C24.1439 13.3844 24.1297 12.8287 24.1651 12.2658C24.2146 11.5604 24.5898 11.0331 25.234 10.7838C26.218 10.4061 27.2232 10.0926 28.2284 9.76486C28.5753 9.65086 28.7806 9.88599 28.9788 10.1282C29 13.5198 29 16.8971 29 20.2816ZM1.59749 23.1103C6.59521 23.1103 11.5434 23.1103 16.5057 23.1103C16.4845 23.0533 16.4774 23.0177 16.4632 22.982C15.1112 20.2602 13.7591 17.5455 12.4141 14.8166C12.3291 14.6456 12.223 14.6242 12.0601 14.6242C10.071 14.6313 8.08178 14.6313 6.08553 14.6242C5.88024 14.6242 5.77406 14.6812 5.68203 14.8736C4.49277 17.2962 3.28935 19.7045 2.08594 22.1199C1.9302 22.4476 1.77446 22.7683 1.59749 23.1103ZM27.7541 19.2413C27.7541 16.548 27.7541 13.9046 27.7541 11.2326C27.0675 11.4678 26.402 11.6815 25.7508 11.9167C25.4747 12.0164 25.3827 12.2587 25.3756 12.5294C25.3685 12.8501 25.3756 13.1778 25.3756 13.4984C25.3756 14.9449 25.3756 16.3841 25.3756 17.8305C25.3756 18.1084 25.411 18.4006 25.6871 18.5074C26.3596 18.7639 27.0462 18.9919 27.7541 19.2413ZM12.0601 13.3844C12.0601 12.7503 12.0743 12.1447 12.0531 11.539C12.046 11.2255 11.7982 10.9904 11.4797 10.9904C9.86567 10.9833 8.25168 10.9833 6.64476 10.9904C6.35453 10.9904 6.09261 11.1828 6.07845 11.4535C6.05013 12.0948 6.07137 12.7361 6.07137 13.3844C8.07471 13.3844 10.0497 13.3844 12.0601 13.3844ZM6.14216 24.3786C6.38992 25.7038 7.58626 26.7726 9.06575 26.7726C10.5877 26.7726 11.7487 25.6753 11.9823 24.3786C10.0426 24.3786 8.10302 24.3786 6.14216 24.3786Z" fill="black"/>
<path d="M5.73866 18.2723C6.13507 18.2794 6.40407 18.65 6.29081 19.0418C6.2625 19.1487 6.21294 19.2556 6.16339 19.3553C5.80944 20.0679 5.4555 20.7804 5.10155 21.4858C4.90334 21.8776 4.57064 22.0201 4.25209 21.8563C3.92646 21.6924 3.82027 21.3433 4.00432 20.9585C4.37243 20.1961 4.75469 19.4337 5.13695 18.6713C5.26437 18.4291 5.44842 18.2652 5.73866 18.2723Z" fill="black"/>
</svg>
