<svg width="31" height="31" viewBox="0 0 31 31" fill="none" xmlns="http://www.w3.org/2000/svg">
<path d="M20.0833 14.5833H16.4167V10.9167C16.4167 10.4107 16.0069 10 15.5 10C14.9931 10 14.5833 10.4107 14.5833 10.9167V14.5833H10.9167C10.4098 14.5833 10 14.994 10 15.5C10 16.006 10.4098 16.4167 10.9167 16.4167H14.5833V20.0833C14.5833 20.5893 14.9931 21 15.5 21C16.0069 21 16.4167 20.5893 16.4167 20.0833V16.4167H20.0833C20.5902 16.4167 21 16.006 21 15.5C21 14.994 20.5902 14.5833 20.0833 14.5833Z" fill="black"/>
<circle cx="15.5" cy="15.5" r="14.8" stroke="black" stroke-width="1.4"/>
</svg>
