<svg width="23" height="21" viewBox="0 0 23 21" fill="none" xmlns="http://www.w3.org/2000/svg">
<path d="M18.1753 20.2699C17.999 20.2699 17.8238 20.2178 17.6736 20.1159L11.9967 16.2652L8.95201 18.456C8.71322 18.6277 8.40543 18.671 8.12815 18.5718C7.85123 18.4724 7.64092 18.2431 7.56585 17.9586L6.03705 12.1649L0.574482 10.0762C0.230592 9.94466 0.00252311 9.61566 2.0794e-05 9.24747C-0.00248153 8.87927 0.221059 8.54717 0.563281 8.41098L21.334 0.146169C21.4282 0.106132 21.528 0.0830153 21.6285 0.0768191C21.6645 0.0746743 21.7006 0.0746743 21.7365 0.0767C21.9448 0.0890925 22.1494 0.173933 22.309 0.330507C22.3256 0.346712 22.3413 0.363275 22.3562 0.380553C22.4885 0.531646 22.5612 0.715864 22.5749 0.903538C22.5782 0.950725 22.578 0.998507 22.5738 1.04629C22.571 1.08037 22.5661 1.11433 22.5592 1.14805L19.0532 19.5436C18.9968 19.8391 18.7957 20.0864 18.5178 20.2017C18.4076 20.2474 18.2911 20.2699 18.1753 20.2699ZM12.4952 14.4435L17.5519 17.8734L20.2799 3.55969L10.4271 13.0406L12.4713 14.4274C12.4796 14.4325 12.4874 14.438 12.4952 14.4435ZM8.28568 13.6807L8.96274 16.2462L10.4215 15.1966L8.51137 13.9008C8.42259 13.8408 8.34657 13.7659 8.28568 13.6807ZM3.35265 9.22471L7.10351 10.6588C7.37221 10.7615 7.57502 10.9874 7.64842 11.2655L8.1241 13.0683C8.14591 12.8603 8.24016 12.6647 8.39328 12.5173L17.7816 3.48343L3.35265 9.22471Z" fill="#C6A464"/>
</svg>
