<svg width="24" height="33" viewBox="0 0 24 33" fill="none" xmlns="http://www.w3.org/2000/svg">
<path d="M0.384161 6.35302L2.9677 3.25226C3.06585 3.13442 3.21159 3.06624 3.36503 3.06624H3.88171V1.51668C3.88171 1.23149 4.11265 1 4.39839 1H11.6322C11.918 1 12.1489 1.23149 12.1489 1.51668V7.20043H18.8661C19.1518 7.20043 19.3828 7.43191 19.3828 7.71711V9.26722H19.8995C20.0529 9.26722 20.1981 9.3354 20.2968 9.45323L22.8803 12.5534C23.0085 12.7074 23.0364 12.9218 22.9511 13.1032C22.8659 13.2845 22.6835 13.4008 22.483 13.4008H20.9329C20.9329 14.5407 20.0059 15.4676 18.8661 15.4676C17.7263 15.4676 16.7998 14.5406 16.7993 13.4013H15.2492C15.0487 13.4013 14.8663 13.285 14.7816 13.1037C14.6963 12.9218 14.7242 12.7079 14.8524 12.5539L17.4359 9.45317C17.534 9.33534 17.6792 9.26716 17.8327 9.26716H18.3494V8.23373H12.149V27.8782C14.4778 27.9619 16.7993 28.613 16.7993 29.9352C16.7993 31.3551 14.1207 32.002 11.6323 32.002C9.1439 32.002 6.46531 31.3551 6.46531 29.9352C6.46531 28.6135 8.78683 27.9619 11.1156 27.8782V2.03342H4.9152V3.0663H5.43188C5.58532 3.0663 5.73052 3.13448 5.82922 3.25232L8.41275 6.35253C8.54087 6.50651 8.56879 6.72092 8.48353 6.90227C8.39882 7.08362 8.2159 7.19988 8.0159 7.19988H6.46579L6.46524 7.20043C6.46524 8.3403 5.53827 9.26722 4.39845 9.26722C3.25864 9.26722 2.33167 8.34024 2.33167 7.20043H0.781559C0.581076 7.20043 0.398695 7.08417 0.313925 6.90282C0.228607 6.72147 0.256035 6.507 0.384161 6.35302ZM18.8661 14.4343C19.4355 14.4343 19.8995 13.9708 19.8995 13.4009H17.8327C17.8327 13.9708 18.2967 14.4343 18.8661 14.4343ZM18.075 10.3006L16.3523 12.368L21.3798 12.3674L19.6571 10.3006H18.075ZM7.49861 29.9353C7.49861 30.2009 8.92004 30.9688 11.6322 30.9688C14.3444 30.9688 15.7659 30.2009 15.7659 29.9353C15.7659 29.6873 14.5242 29.0012 12.149 28.9117V29.4186C12.149 29.7038 11.918 29.9353 11.6323 29.9353C11.3466 29.9353 11.1156 29.7038 11.1156 29.4186V28.9117C8.74027 29.0011 7.49861 29.6873 7.49861 29.9353ZM4.39839 8.23385C4.9683 8.23385 5.43182 7.77039 5.43182 7.20043C5.43182 7.20043 5.43182 7.20043 5.43182 7.19988L3.36503 7.20043C3.36503 7.77033 3.82849 8.23385 4.39839 8.23385ZM6.91217 6.16652L5.18949 4.09973H3.60681L1.88462 6.16706L6.91217 6.16652Z" fill="black" stroke="black" stroke-width="0.25"/>
</svg>
