<svg width="22" height="23" viewBox="0 0 22 23" fill="none" xmlns="http://www.w3.org/2000/svg">
<path d="M18.8554 3.41612C17.2014 1.79451 14.5272 1.00878 10.906 1.07959C7.25452 1.1514 4.81372 1.7923 3.22465 3.09659C1.68823 4.35756 0.972656 6.20273 0.972656 8.90341V11.6597C0.972656 14.848 2.68111 18.3531 5.94636 18.8835C6.32332 18.9451 6.67843 18.6888 6.73965 18.3118C6.80086 17.9349 6.54494 17.5797 6.16798 17.5185C3.69169 17.1163 2.35549 14.1997 2.35549 11.6597V8.90341C2.35549 5.03091 3.79042 2.60255 10.9331 2.46206C14.1712 2.39789 16.5084 3.05161 17.8872 4.40347C18.9616 5.4571 19.484 6.92899 19.484 8.90341V11.6597C19.484 15.8335 17.6106 17.6744 12.8057 18.2165H9.39857C9.2152 18.2165 9.03931 18.2893 8.90969 18.419L6.50899 20.8197C6.23897 21.0897 6.23897 21.5275 6.50899 21.7976C6.64395 21.9325 6.82096 22.0001 6.99787 22.0001C7.17478 22.0001 7.35178 21.9326 7.48675 21.7976L9.685 19.5993H12.8443C12.8698 19.5993 12.8953 19.5979 12.9207 19.5951C15.6705 19.2896 17.5535 18.574 18.8465 17.3427C20.206 16.048 20.8669 14.1891 20.8669 11.6596V8.90341C20.8669 6.57112 20.1901 4.72493 18.8554 3.41612Z" fill="#C6A464" stroke="#C6A464" stroke-width="0.5"/>
<path d="M11.3513 5.59136C11.3514 5.59136 11.3514 5.59136 11.3516 5.59136C12.4657 5.59136 13.5132 6.0253 14.301 6.81315C15.0889 7.60109 15.5229 8.64873 15.5228 9.76302C15.5228 10.1449 15.8323 10.4544 16.2141 10.4544C16.2142 10.4544 16.2142 10.4544 16.2142 10.4544C16.5961 10.4544 16.9056 10.145 16.9056 9.76311C16.9057 8.27942 16.328 6.8845 15.2789 5.83539C14.2298 4.78628 12.8352 4.20862 11.3516 4.20862C11.3515 4.20862 11.3512 4.20862 11.3511 4.20862C10.9693 4.20862 10.6598 4.51819 10.6598 4.90004C10.6599 5.28179 10.9695 5.59136 11.3513 5.59136Z" fill="#C6A464" stroke="#C6A464" stroke-width="0.5"/>
<path d="M11.3511 8.02285C12.3106 8.02304 13.0914 8.8037 13.0915 9.76311C13.0916 10.145 13.4011 10.4545 13.783 10.4544C14.1649 10.4544 14.4744 10.1448 14.4743 9.76293C14.474 8.0412 13.0731 6.64029 11.3513 6.64001H11.3512C10.9694 6.64001 10.6599 6.94949 10.6598 7.33134C10.6598 7.71319 10.9693 8.02285 11.3511 8.02285Z" fill="#C6A464" stroke="#C6A464" stroke-width="0.5"/>
<path d="M8.25081 9.20738C7.93561 9.42292 7.85476 9.85317 8.07021 10.1684C8.28566 10.4836 8.716 10.5643 9.03119 10.3489C9.27909 10.1794 9.85969 9.78246 9.81895 8.98889C9.79313 8.51393 9.36473 7.83579 9.00989 7.3505C8.49087 6.64046 8.04357 6.2128 7.6832 6.08023C7.34671 5.95494 6.99482 5.95227 6.63658 6.07248C5.89454 6.3225 5.35579 6.77432 5.07867 7.37908C4.80883 7.9678 4.81482 8.64438 5.09609 9.33608C5.76041 10.9658 6.69041 12.3926 7.86647 13.583C9.05064 14.7527 10.4774 15.6828 12.1077 16.3474C12.4605 16.491 12.8096 16.5628 13.145 16.5628C13.4668 16.5628 13.7761 16.4968 14.0643 16.3647C14.669 16.0875 15.1207 15.5488 15.371 14.8058C15.4909 14.4484 15.4882 14.0967 15.3639 13.7625C15.2305 13.3996 14.8027 12.9524 14.0927 12.4334C13.6074 12.0785 12.9292 11.6501 12.4524 11.6242C11.6605 11.5844 11.2639 12.164 11.0945 12.4119C10.8789 12.7271 10.9596 13.1573 11.2748 13.373C11.5901 13.5886 12.0202 13.5078 12.2359 13.1926C12.3111 13.0826 12.3541 13.0327 12.3787 13.0108C12.7668 13.1352 13.8735 13.9483 14.0727 14.2599C14.0776 14.2798 14.0787 14.3101 14.0603 14.3654C13.9731 14.6243 13.803 14.9633 13.4882 15.1077C13.1933 15.2426 12.8582 15.1599 12.6293 15.0668C11.1684 14.4712 9.89298 13.641 8.84423 12.6051C7.8024 11.5506 6.97224 10.2751 6.37697 8.81475C6.28367 8.58538 6.2008 8.25009 6.33585 7.95545C6.48013 7.64062 6.8192 7.47044 7.07733 7.38342C7.13246 7.36498 7.16279 7.36599 7.18381 7.37106C7.4955 7.57065 8.30815 8.67674 8.43261 9.06495C8.41066 9.08919 8.36079 9.13225 8.25081 9.20738Z" fill="#C6A464" stroke="#C6A464" stroke-width="0.5"/>
</svg>
