<svg width="22" height="22" viewBox="0 0 22 22" fill="none" xmlns="http://www.w3.org/2000/svg">
<path d="M10.9512 1C5.46399 1 1 5.46417 1 10.9513C1 13.0988 1.87165 15.0271 2.24649 15.7565C2.421 16.0962 2.83798 16.2298 3.17751 16.0554C3.51713 15.8809 3.65099 15.464 3.47648 15.1244C3.14773 14.4845 2.38293 12.7969 2.38293 10.9512C2.38284 6.22667 6.22658 2.38284 10.9512 2.38284C15.6763 2.38284 19.5203 6.22667 19.5203 10.9513C19.5203 15.6761 15.6763 19.5199 10.9512 19.5199C9.10334 19.5199 7.63504 18.8801 7.08947 18.6049C6.92768 18.5232 6.74025 18.5085 6.56768 18.5637L2.21247 19.9555C1.84879 20.0717 1.64809 20.4608 1.76434 20.8246C1.85819 21.1184 2.13015 21.3057 2.42276 21.3057C2.49254 21.3057 2.56344 21.2951 2.63341 21.2727L6.72578 19.9649C7.58194 20.3623 9.08887 20.9027 10.9512 20.9027C16.4387 20.9027 20.9031 16.4386 20.9031 10.9513C20.9031 5.46417 16.4387 1 10.9512 1Z" fill="#C6A464" stroke="#C6A464" stroke-width="0.5"/>
<path d="M8.9893 9.25435C8.68646 9.48694 8.62958 9.92097 8.86208 10.2239C9.09467 10.5267 9.52861 10.5837 9.83163 10.3511C10.0436 10.1883 10.6066 9.75595 10.5242 8.98257C10.4734 8.52283 10.0248 7.89197 9.6574 7.44384C9.11984 6.78801 8.66479 6.39962 8.30747 6.29028C7.97264 6.18647 7.62951 6.20288 7.2873 6.33914C6.58335 6.6205 6.08654 7.08661 5.85053 7.68713C5.62071 8.27198 5.66247 8.92643 5.97158 9.58042C6.69314 11.1036 7.65754 12.419 8.83802 13.4904C8.84263 13.4948 8.84733 13.499 8.85203 13.5033C10.0493 14.5616 11.4658 15.377 13.0628 15.9272C13.3658 16.0313 13.6632 16.0832 13.9488 16.0832C14.3076 16.0832 14.6479 16.0013 14.9574 15.8381C15.5281 15.5372 15.9365 14.9921 16.1387 14.2603C16.236 13.9056 16.2143 13.563 16.0751 13.244C15.9259 12.8988 15.4897 12.4895 14.7786 12.0278C14.2929 11.7123 13.6169 11.3363 13.1524 11.3363C13.1521 11.3363 13.1517 11.3363 13.1514 11.3363C12.3764 11.3395 12.0085 11.9467 11.87 12.1755C11.6722 12.5021 11.7766 12.9273 12.1032 13.1251C12.4296 13.3229 12.8549 13.2187 13.0528 12.8919C13.1075 12.8016 13.1421 12.7537 13.1639 12.7286C13.5544 12.842 14.599 13.5253 14.8131 13.8128C14.8166 13.8281 14.817 13.8513 14.8055 13.8934C14.7374 14.14 14.5964 14.4653 14.3124 14.6151C14.047 14.7548 13.7305 14.6946 13.5125 14.6198C12.0916 14.1302 10.8341 13.4082 9.77485 12.4737C9.77457 12.4734 9.7742 12.4731 9.77392 12.4728C8.72509 11.5225 7.86625 10.3503 7.22139 8.98912C7.12265 8.78003 7.02779 8.47221 7.1375 8.19316C7.25495 7.89428 7.56277 7.71838 7.79969 7.6237C7.84035 7.60748 7.8633 7.60499 7.87999 7.6072C8.18956 7.78835 8.9834 8.75053 9.13929 9.1262C9.1168 9.15045 9.07292 9.19009 8.9893 9.25435Z" fill="#C6A464" stroke="#C6A464" stroke-width="0.5"/>
</svg>
