<svg width="30" height="64" viewBox="0 0 30 64" fill="none" xmlns="http://www.w3.org/2000/svg">
<path d="M10.3317 15.6628C11.0299 13.8474 12.6009 12.9281 13.2991 12.6953H17.8376V25.9616H5.79321V24.0415C6.54962 23.4596 8.237 21.9817 8.93522 20.7249C9.808 19.1539 9.45889 17.932 10.3317 15.6628Z" fill="#47708A"/>
<path d="M24.9935 15.6628C24.2953 13.8474 22.7243 12.9281 22.0261 12.6953H17.4876V25.9616H29.532V24.0415C28.7756 23.4596 27.0882 21.9817 26.39 20.7249C25.5172 19.1539 25.8663 17.932 24.9935 15.6628Z" fill="#47708A"/>
<path d="M13.9972 11.648H21.154V9.37874L19.4084 7.80774H15.7428L13.9972 9.37874V11.648Z" fill="#47708A"/>
<path d="M29.0094 60.1744C29.0094 62.0061 23.6951 63.491 17.1396 63.491C10.5841 63.491 5.26978 62.0061 5.26978 60.1744C5.26978 58.3427 10.5841 55.2869 17.1396 55.2869C23.6951 55.2869 29.0094 58.3427 29.0094 60.1744Z" fill="#47708A"/>
<path d="M17.3135 7.10946C17.3135 5.53842 17.3135 0.999964 12.5993 1C8.22147 1.00003 2.47495 6.23668 1.25305 16.0118C0.0311602 25.787 3.38533 31.8964 8.06223 35.5621C12.7391 39.2278 14.5181 38.7041 16.4382 42.0207C17.9743 44.6739 17.4881 54.7051 17.3135 58.0798L15.917 61.0473" stroke="#47708A" stroke-width="2"/>
<rect x="15.0441" y="45.6863" width="4.53846" height="11.1716" fill="#47708A"/>
</svg>
